<svg width="24" height="25" viewBox="0 0 24 25" fill="none" xmlns="http://www.w3.org/2000/svg">
<path d="M22 16.9165V4.84647C22 3.64647 21.02 2.75647 19.83 2.85647H19.77C17.67 3.03647 14.48 4.10647 12.7 5.22647L12.53 5.33647C12.24 5.51647 11.76 5.51647 11.47 5.33647L11.22 5.18647C9.44 4.07647 6.26 3.01647 4.16 2.84647C2.97 2.74647 2 3.64647 2 4.83647V16.9165C2 17.8765 2.78 18.7765 3.74 18.8965L4.03 18.9365C6.2 19.2265 9.55 20.3265 11.47 21.3765L11.51 21.3965C11.78 21.5465 12.21 21.5465 12.47 21.3965C14.39 20.3365 17.75 19.2265 19.93 18.9365L20.26 18.8965C21.22 18.7765 22 17.8765 22 16.9165Z" stroke="#757575" stroke-width="1.5" stroke-linecap="round" stroke-linejoin="round"/>
<path d="M12 5.66647V20.6665" stroke="#757575" stroke-width="1.5" stroke-linecap="round" stroke-linejoin="round"/>
<path d="M7.75 8.66647H5.5" stroke="#757575" stroke-width="1.5" stroke-linecap="round" stroke-linejoin="round"/>
<path d="M8.5 11.6665H5.5" stroke="#757575" stroke-width="1.5" stroke-linecap="round" stroke-linejoin="round"/>
</svg>
