<svg width="20" height="20" viewBox="0 0 20 20" fill="none" xmlns="http://www.w3.org/2000/svg">
<path fill-rule="evenodd" clip-rule="evenodd" d="M10 1.51899C6.6759 1.51899 4.09641 3.57468 3.65641 6.07595H5.89744C6.10145 6.07595 6.29711 6.15597 6.44136 6.2984C6.58562 6.44083 6.66667 6.63401 6.66667 6.83544V13.924C6.66667 14.1255 6.58562 14.3187 6.44136 14.4611C6.29711 14.6035 6.10145 14.6835 5.89744 14.6835H2.82051C2.07247 14.6835 1.35506 14.3901 0.826109 13.8679C0.29716 13.3456 6.19752e-08 12.6373 6.19752e-08 11.8987V8.86076C-0.000129949 8.24821 0.204296 7.65271 0.58162 7.16647C0.958945 6.68024 1.48811 6.3304 2.08718 6.17114C2.47897 2.62278 5.97333 0 10 0C14.0267 0 17.521 2.62278 17.9128 6.17114C18.5118 6.33055 19.0409 6.68043 19.4182 7.16663C19.7955 7.65283 20 8.24825 20 8.86076V11.8987C20 12.5131 19.7944 13.1102 19.415 13.5972C19.0357 14.0842 18.504 14.4337 17.9026 14.5914C17.7393 15.7404 17.1611 16.7924 16.2743 17.5537C15.3875 18.3149 14.252 18.7342 13.0769 18.7342H11.9026C11.7241 19.1699 11.3976 19.5307 10.9792 19.7549C10.5608 19.979 10.0764 20.0525 9.60914 19.9627C9.14187 19.8729 8.72077 19.6255 8.41802 19.2628C8.11526 18.9001 7.94969 18.4447 7.94969 17.9747C7.94969 17.5047 8.11526 17.0493 8.41802 16.6866C8.72077 16.3239 9.14187 16.0764 9.60914 15.9867C10.0764 15.8969 10.5608 15.9704 10.9792 16.1945C11.3976 16.4186 11.7241 16.7795 11.9026 17.2152H13.0769C13.8273 17.2152 14.5557 16.9652 15.1444 16.5058C15.7331 16.0464 16.1477 15.4044 16.321 14.6835H14.1026C13.8986 14.6835 13.7029 14.6035 13.5586 14.4611C13.4144 14.3187 13.3333 14.1255 13.3333 13.924V6.83544C13.3333 6.63401 13.4144 6.44083 13.5586 6.2984C13.7029 6.15597 13.8986 6.07595 14.1026 6.07595H16.3436C15.9036 3.57468 13.3241 1.51899 10 1.51899ZM2.82051 7.59493C2.11282 7.59493 1.53846 8.16202 1.53846 8.86076V11.8987C1.53846 12.5975 2.11282 13.1646 2.82051 13.1646H5.12821V7.59493H2.82051ZM18.4615 8.86076C18.4615 8.16202 17.8872 7.59493 17.1795 7.59493H14.8718V13.1646H17.1795C17.8872 13.1646 18.4615 12.5975 18.4615 11.8987V8.86076Z" fill="#1B9E84"/>
</svg>
