<svg width="20" height="22" viewBox="0 0 20 22" fill="none" xmlns="http://www.w3.org/2000/svg">
<path d="M7.11111 3.37222C7.50078 3.37222 7.81667 3.05633 7.81667 2.66667C7.81667 2.44268 7.99824 2.26111 8.22222 2.26111H11.5556C11.7795 2.26111 11.9611 2.44268 11.9611 2.66667C11.9611 3.05633 12.277 3.37222 12.6667 3.37222C13.0563 3.37222 13.3722 3.05633 13.3722 2.66667C13.3722 1.66335 12.5589 0.85 11.5556 0.85H8.22222C7.2189 0.85 6.40556 1.66335 6.40556 2.66667C6.40556 3.05633 6.72144 3.37222 7.11111 3.37222ZM4.48333 2.66667C4.48333 2.277 4.16745 1.96111 3.77778 1.96111C2.16081 1.96111 0.85 3.27192 0.85 4.88889V18.2222C0.85 19.8392 2.16081 21.15 3.77778 21.15H16C17.617 21.15 18.9278 19.8392 18.9278 18.2222V4.88889C18.9278 3.27192 17.617 1.96111 16 1.96111C15.6103 1.96111 15.2944 2.277 15.2944 2.66667C15.2944 3.05633 15.6103 3.37222 16 3.37222C16.8376 3.37222 17.5167 4.05126 17.5167 4.88889V18.2222C17.5167 19.0599 16.8376 19.7389 16 19.7389H3.77778C2.94015 19.7389 2.26111 19.0599 2.26111 18.2222V4.88889C2.26111 4.05126 2.94015 3.37222 3.77778 3.37222C4.16745 3.37222 4.48333 3.05633 4.48333 2.66667Z" fill="#1B9E84" stroke="#1B9E84" stroke-width="0.3"/>
<path d="M14.2766 7.72328C14.001 7.44774 13.5543 7.44774 13.2788 7.72328L8.22211 12.7799L6.4988 11.0566C6.22326 10.7811 5.77652 10.7811 5.50099 11.0566C5.22545 11.3321 5.22545 11.7789 5.50099 12.0544L7.72321 14.2766C7.99875 14.5522 8.44548 14.5522 8.72102 14.2766L14.2766 8.72109C14.5521 8.44555 14.5521 7.99881 14.2766 7.72328Z" fill="#1B9E84" stroke="#1B9E84" stroke-width="0.3"/>
</svg>
