<svg width="22" height="18" viewBox="0 0 22 18" fill="none" xmlns="http://www.w3.org/2000/svg">
<mask id="path-1-outside-1_1176_8390" maskUnits="userSpaceOnUse" x="0" y="0" width="22" height="18" fill="black">
<rect fill="white" width="22" height="18"/>
<path d="M20.9999 13.4804C20.9999 12.3101 20.6495 11.1801 19.9864 10.2124C19.5094 9.51647 18.8952 8.93851 18.1834 8.50901C19.0214 7.71542 19.5458 6.59376 19.5458 5.35123C19.5458 2.95198 17.5938 1 15.1946 1C13.7719 1 12.4392 1.7036 11.6297 2.85861C11.424 2.82865 11.2139 2.81248 11 2.81248C10.7861 2.81248 10.576 2.8287 10.3703 2.85861C9.56071 1.7036 8.22803 1 6.80542 1C4.40617 1 2.45419 2.95198 2.45419 5.35123C2.45419 6.59376 2.97851 7.71542 3.81656 8.50901C3.10474 8.93845 2.49054 9.51647 2.01363 10.2124C1.35051 11.1801 1 12.3101 1 13.4804V15.9007H5.19461V17.7131H16.8054V15.9007H21V13.4804H20.9999ZM15.1946 2.07393C17.0017 2.07393 18.4719 3.54412 18.4719 5.35129C18.4719 7.15845 17.0017 8.62864 15.1946 8.62864C15.1622 8.62864 15.1298 8.62816 15.0974 8.62719C15.0999 8.62032 15.1019 8.61329 15.1043 8.60641C15.1603 8.4478 15.2069 8.2849 15.2444 8.1185C15.247 8.10669 15.25 8.09498 15.2525 8.08311C15.2622 8.03823 15.2708 7.99291 15.2791 7.94748C15.283 7.92601 15.287 7.90458 15.2906 7.88305C15.2974 7.84251 15.3035 7.80181 15.3092 7.76095C15.3131 7.73255 15.3166 7.70414 15.32 7.67569C15.3243 7.6396 15.3284 7.60347 15.3318 7.56712C15.3352 7.53001 15.3378 7.49286 15.3403 7.45565C15.3422 7.42633 15.3446 7.39712 15.3459 7.36764C15.3489 7.30445 15.3506 7.24114 15.3508 7.17778C15.3508 7.17311 15.3512 7.16855 15.3512 7.16382C15.3512 7.1613 15.3509 7.15878 15.3509 7.15625C15.3508 7.09155 15.349 7.02723 15.3461 6.96312C15.3452 6.94448 15.3441 6.92591 15.343 6.90733C15.3398 6.85283 15.3357 6.7986 15.3306 6.74464C15.3294 6.73239 15.3284 6.72015 15.3272 6.70796C15.1649 5.13962 14.1741 3.79723 12.7448 3.17631C13.3607 2.48436 14.2516 2.07393 15.1946 2.07393ZM9.86602 4.08862C9.87649 4.08481 9.88706 4.08121 9.89753 4.07746C9.93013 4.0658 9.96299 4.05474 9.99601 4.04406C10.021 4.03606 10.0462 4.02833 10.0716 4.02092C10.09 4.01549 10.1084 4.01028 10.127 4.00513C10.16 3.99606 10.1933 3.9872 10.2268 3.97909C10.4749 3.91884 10.7336 3.88614 10.9999 3.88614C11.2663 3.88636 11.5252 3.91911 11.7733 3.97936C11.8066 3.98741 11.8396 3.99622 11.8726 4.00524C11.8913 4.01045 11.9101 4.01571 11.9288 4.02124C11.9538 4.02859 11.9787 4.03622 12.0035 4.04411C12.0369 4.0549 12.0701 4.06607 12.1031 4.07788C12.1133 4.08148 12.1234 4.08492 12.1335 4.08862C13.2296 4.49396 14.0513 5.46941 14.2373 6.6532C14.2388 6.66265 14.2402 6.67215 14.2416 6.68165C14.2475 6.72176 14.2525 6.76219 14.257 6.80273C14.2586 6.81766 14.2603 6.83253 14.2618 6.84751C14.2653 6.88451 14.2679 6.92177 14.2703 6.95914C14.2713 6.97514 14.2726 6.99109 14.2734 7.00715C14.2756 7.05488 14.2768 7.10288 14.277 7.15115C14.277 7.15534 14.2773 7.15942 14.2773 7.16361C14.2773 7.16554 14.2772 7.16753 14.2772 7.16946C14.2771 7.21618 14.2757 7.26257 14.2736 7.3088C14.273 7.32335 14.2723 7.3379 14.2715 7.3524C14.269 7.39707 14.2656 7.44153 14.2613 7.48566C14.2597 7.50274 14.2574 7.51976 14.2555 7.53678C14.2522 7.56535 14.2486 7.59386 14.2446 7.62221C14.2415 7.64427 14.2383 7.6664 14.2348 7.68836C14.2294 7.72181 14.2234 7.75505 14.2169 7.78817C14.2112 7.81765 14.2049 7.84702 14.1983 7.87634C14.1944 7.894 14.1903 7.91167 14.1861 7.92923C14.1756 7.97277 14.1641 8.01605 14.1519 8.05917C14.147 8.07629 14.1425 8.09353 14.1373 8.1105C14.1298 8.1352 14.1218 8.15968 14.1138 8.18417C14.1073 8.20376 14.1007 8.22325 14.0939 8.24269C14.0862 8.26476 14.0786 8.28688 14.0704 8.30879C14.0565 8.346 14.0419 8.38289 14.0267 8.41945C14.0199 8.43577 14.0127 8.45194 14.0057 8.46821C13.9924 8.49865 13.9788 8.52893 13.9646 8.55889C13.963 8.56244 13.9613 8.56598 13.9596 8.56953C13.9545 8.58016 13.9495 8.59084 13.9443 8.60147C13.9284 8.6339 13.9118 8.66596 13.8949 8.69775C13.8883 8.7101 13.8819 8.72261 13.8751 8.7349C13.8747 8.73571 13.8743 8.73646 13.8738 8.73721C13.8552 8.77104 13.8359 8.80433 13.8162 8.8374C13.8083 8.8505 13.8006 8.86366 13.7926 8.8766C13.7711 8.91145 13.749 8.94592 13.7263 8.97985C13.7122 9.00095 13.6974 9.02163 13.6828 9.04241C13.6704 9.06002 13.6581 9.07768 13.6454 9.09503C13.6289 9.11747 13.6121 9.13965 13.595 9.16171C13.5834 9.17669 13.5717 9.19157 13.5599 9.20639C13.5418 9.22894 13.5236 9.25138 13.5051 9.27345C13.4935 9.28714 13.4816 9.30056 13.4699 9.31404C13.4506 9.33622 13.4313 9.35845 13.4114 9.38009C13.3996 9.39292 13.3874 9.40527 13.3753 9.41794C13.343 9.45203 13.3099 9.48538 13.2762 9.51808C13.2562 9.53746 13.2363 9.5569 13.2158 9.57575C13.2016 9.58879 13.187 9.60147 13.1726 9.6143C13.1491 9.63518 13.1254 9.65586 13.1013 9.67605C13.089 9.6863 13.0767 9.69645 13.0643 9.70654C13.0351 9.73028 13.0056 9.75353 12.9756 9.77629C12.9674 9.78247 12.9594 9.78875 12.9511 9.79487C12.4056 10.2004 11.7304 10.4408 10.9999 10.4408C10.2694 10.4408 9.59406 10.2004 9.04853 9.79471C9.04047 9.78869 9.03258 9.78252 9.02458 9.77645C8.99446 9.75363 8.96477 9.73022 8.9355 9.70638C8.92321 9.69634 8.91091 9.6863 8.89878 9.6761C8.87456 9.6558 8.85083 9.63502 8.8272 9.61408C8.81287 9.6013 8.79837 9.58874 8.78425 9.57575C8.76368 9.55685 8.74371 9.53735 8.72363 9.51797C8.68975 9.48516 8.65662 9.45171 8.62419 9.41751C8.61232 9.405 8.60019 9.39281 8.58853 9.38014C8.56861 9.35845 8.54934 9.33616 8.53001 9.31399C8.51825 9.30051 8.50644 9.28714 8.49489 9.27345C8.47626 9.25138 8.45811 9.22894 8.44007 9.20644C8.42826 9.19162 8.4165 9.17675 8.4049 9.16171C8.38788 9.1397 8.37108 9.11752 8.35459 9.09508C8.34187 9.07768 8.32946 9.05996 8.31706 9.0423C8.30245 9.02157 8.28774 9.00095 8.27367 8.97991C8.25085 8.94581 8.22868 8.91123 8.20715 8.87628C8.19926 8.86344 8.19163 8.8505 8.1839 8.83756C8.16387 8.80401 8.14427 8.77029 8.12543 8.73598C8.1185 8.72336 8.11195 8.71052 8.10513 8.69785C8.08816 8.66596 8.07157 8.6338 8.05562 8.60131C8.04993 8.58977 8.0444 8.57812 8.03887 8.56652C8.03801 8.56475 8.03721 8.56297 8.0364 8.5612C8.02153 8.52985 8.0073 8.49817 7.99339 8.46622C7.98679 8.45102 7.98008 8.43588 7.97374 8.42063C7.95817 8.38326 7.9433 8.34557 7.92907 8.30755C7.92139 8.28704 7.9143 8.26632 7.90705 8.24564C7.89959 8.22444 7.89239 8.20307 7.88536 8.18164C7.87779 8.15845 7.87017 8.13525 7.86308 8.11195C7.8525 8.0771 7.84251 8.04204 7.83312 8.00676C7.82651 7.98201 7.82055 7.95704 7.81449 7.93213C7.80976 7.91253 7.8052 7.89293 7.80085 7.87322C7.79548 7.84906 7.79006 7.82495 7.78522 7.80068C7.77776 7.76288 7.77094 7.72487 7.76482 7.68664C7.76149 7.66602 7.75859 7.64535 7.75564 7.62473C7.75129 7.59418 7.74737 7.56347 7.74388 7.53265C7.74216 7.51745 7.74017 7.50225 7.73862 7.48706C7.73416 7.4418 7.73078 7.39621 7.7282 7.35046C7.72745 7.33731 7.72686 7.32415 7.72627 7.311C7.72407 7.26208 7.72251 7.21301 7.72251 7.16361C7.72251 7.11067 7.72401 7.0581 7.72654 7.00575C7.72723 6.99152 7.72841 6.9774 7.72922 6.96322C7.73158 6.92392 7.73443 6.88472 7.73819 6.84574C7.73948 6.83216 7.74103 6.81863 7.74248 6.8051C7.7471 6.76289 7.75231 6.7209 7.75854 6.67918C7.75972 6.67108 7.7609 6.66291 7.76219 6.65481C7.94759 5.47032 8.76954 4.49423 9.86602 4.08862ZM3.52806 5.35129C3.52806 3.54417 4.99825 2.07393 6.80542 2.07393C7.74844 2.07393 8.63928 2.48442 9.2552 3.17621C7.82539 3.79734 6.83436 5.14038 6.67258 6.70936C6.67145 6.71999 6.67065 6.73068 6.66963 6.74136C6.66426 6.79726 6.66002 6.85337 6.6568 6.9098C6.65583 6.92698 6.65475 6.94411 6.65395 6.96134C6.65089 7.02852 6.64879 7.0959 6.64879 7.16377C6.64879 7.23228 6.65078 7.30064 6.654 7.36893C6.65529 7.39642 6.65755 7.42365 6.65932 7.45098C6.66195 7.49028 6.66463 7.52959 6.66829 7.56878C6.67151 7.60363 6.67548 7.63826 6.67956 7.67289C6.68311 7.70307 6.68686 7.73314 6.69105 7.76321C6.69653 7.80267 6.70243 7.84198 6.70893 7.88112C6.71285 7.90437 6.71715 7.92756 6.72139 7.95076C6.72944 7.99457 6.73766 8.03828 6.747 8.08161C6.75011 8.09589 6.75366 8.11007 6.75688 8.1243C6.79334 8.28554 6.8386 8.4434 6.89251 8.59734C6.89595 8.60727 6.89895 8.61731 6.90244 8.62719C6.87007 8.62816 6.83764 8.62864 6.80531 8.62864C4.99825 8.62859 3.52806 7.1584 3.52806 5.35129ZM6.09489 12.1973C6.08308 12.2159 6.0718 12.2349 6.0602 12.2536C6.03567 12.2932 6.01134 12.333 5.98782 12.3731C5.97467 12.3955 5.962 12.418 5.94922 12.4406C5.92806 12.4778 5.90718 12.5151 5.88688 12.5527C5.8741 12.5764 5.86154 12.6002 5.84908 12.624C5.82954 12.6614 5.81047 12.6991 5.79179 12.7368C5.78003 12.7605 5.76833 12.7842 5.75694 12.8081C5.73793 12.8478 5.71962 12.8879 5.70153 12.9281C5.6917 12.95 5.68161 12.9717 5.67211 12.9936C5.65117 13.0417 5.63119 13.0902 5.61159 13.1389C5.60585 13.1531 5.59973 13.1672 5.59414 13.1814C5.56928 13.2446 5.5455 13.3082 5.52294 13.3722C5.51779 13.3868 5.51317 13.4016 5.50807 13.4163C5.4911 13.4656 5.47457 13.515 5.45894 13.5647C5.4518 13.5875 5.4452 13.6105 5.43832 13.6333C5.42571 13.6754 5.4133 13.7176 5.40165 13.76C5.39472 13.7852 5.38812 13.8105 5.38152 13.8359C5.37088 13.8766 5.36068 13.9174 5.35102 13.9583C5.34484 13.9843 5.33883 14.0102 5.33308 14.0362C5.32385 14.0777 5.3152 14.1194 5.30688 14.1611C5.30189 14.1862 5.29673 14.2112 5.29206 14.2364C5.28363 14.2818 5.27606 14.3275 5.2687 14.3732C5.26527 14.3946 5.26146 14.416 5.25823 14.4375C5.24825 14.5046 5.23917 14.5719 5.23155 14.6395C5.23144 14.6403 5.23139 14.6411 5.23133 14.6419C5.22441 14.7034 5.21845 14.765 5.21345 14.8268H2.07387V13.4804C2.07387 11.641 3.13132 9.98962 4.78798 9.20472C5.3915 9.52194 6.07755 9.70252 6.80537 9.70252C7.01585 9.70252 7.22697 9.68695 7.43648 9.65612C7.46913 9.70268 7.50231 9.74875 7.53667 9.79396C7.54827 9.80915 7.5603 9.82397 7.57211 9.83901C7.60605 9.88239 7.64046 9.92529 7.67601 9.96733C7.69056 9.98457 7.70549 10.0014 7.72031 10.0185C7.7536 10.0567 7.78742 10.0944 7.822 10.1314C7.84015 10.1509 7.85862 10.1701 7.87709 10.1892C7.90872 10.2218 7.94077 10.254 7.97337 10.2856C7.98561 10.2974 7.99715 10.31 8.0095 10.3218C7.96284 10.35 7.91661 10.3788 7.87081 10.4083C7.86335 10.4131 7.85604 10.4181 7.84863 10.423C7.80283 10.4527 7.75752 10.4831 7.71263 10.5141C7.69711 10.5248 7.68165 10.5357 7.66618 10.5465C7.62618 10.5747 7.58661 10.6034 7.54736 10.6325C7.53496 10.6418 7.52239 10.6508 7.5101 10.6601C7.46016 10.6979 7.41082 10.7363 7.36212 10.7756C7.35148 10.7842 7.34107 10.7931 7.33044 10.8018C7.29167 10.8335 7.25328 10.8658 7.21537 10.8985C7.20066 10.9112 7.18605 10.924 7.17145 10.9368C7.13349 10.9703 7.09601 11.0042 7.05891 11.0386C7.04924 11.0476 7.03936 11.0564 7.02975 11.0655C6.98422 11.1083 6.93939 11.152 6.8952 11.1964C6.8837 11.2079 6.87248 11.2197 6.8611 11.2313C6.82727 11.2658 6.79382 11.3007 6.7608 11.3361C6.7477 11.3502 6.7346 11.3642 6.7216 11.3785C6.68445 11.4191 6.64783 11.4602 6.6118 11.5019C6.60616 11.5085 6.60031 11.5148 6.59467 11.5214C6.5536 11.5693 6.51343 11.6182 6.47381 11.6675C6.46275 11.6813 6.45195 11.6953 6.44105 11.7092C6.41125 11.747 6.38188 11.7852 6.353 11.8238C6.34183 11.8388 6.33061 11.8536 6.3196 11.8686C6.2818 11.9202 6.24448 11.9721 6.20824 12.025C6.16931 12.0818 6.13162 12.1394 6.09489 12.1973ZM6.26848 16.6393V15.9007V15.2929C6.26848 15.2333 6.26961 15.1739 6.27181 15.1147C6.27251 15.0952 6.27407 15.0759 6.27503 15.0564C6.27697 15.0169 6.27879 14.9773 6.28169 14.938C6.28346 14.9141 6.28615 14.8904 6.2883 14.8666C6.29141 14.8319 6.2942 14.7971 6.29807 14.7627C6.30091 14.7374 6.30462 14.7124 6.30784 14.6872C6.31203 14.6544 6.31595 14.6215 6.32078 14.5889C6.3247 14.5629 6.32942 14.5371 6.33372 14.5112C6.33898 14.4798 6.34387 14.4482 6.34977 14.4169C6.35477 14.3904 6.36057 14.3642 6.36599 14.3378C6.37222 14.3075 6.37818 14.277 6.385 14.2468C6.39101 14.2201 6.39788 14.1938 6.40433 14.1673C6.41158 14.1377 6.4185 14.108 6.42629 14.0787C6.43338 14.052 6.44121 14.0256 6.44873 13.9991C6.45689 13.9703 6.46484 13.9414 6.47354 13.9127C6.48165 13.8861 6.49056 13.8597 6.4991 13.8332C6.50822 13.8051 6.51708 13.777 6.5267 13.7491C6.53582 13.7228 6.54565 13.6966 6.55521 13.6705C6.5653 13.6429 6.57518 13.6152 6.58576 13.5878C6.59585 13.5618 6.60659 13.536 6.61706 13.5102C6.62807 13.4831 6.63892 13.456 6.65041 13.4292C6.66152 13.4034 6.67323 13.3778 6.68477 13.3522C6.69664 13.3259 6.70839 13.2994 6.72074 13.2733C6.73283 13.2478 6.7455 13.2226 6.75801 13.1973C6.77079 13.1716 6.78341 13.1457 6.79661 13.1202C6.80966 13.0951 6.82325 13.0703 6.83672 13.0454C6.85036 13.0203 6.86384 12.9951 6.87791 12.9702C6.89187 12.9455 6.90636 12.9211 6.9207 12.8967C6.9352 12.8721 6.94959 12.8475 6.96457 12.8231C6.97944 12.7989 6.9948 12.775 7.0101 12.7511C7.02546 12.7271 7.04071 12.7031 7.05649 12.6793C7.07228 12.6556 7.08849 12.6322 7.10471 12.6088C7.12087 12.5854 7.13698 12.5621 7.15352 12.539C7.17016 12.5158 7.18729 12.4929 7.20442 12.47C7.22138 12.4473 7.2383 12.4246 7.25564 12.4022C7.27315 12.3796 7.29108 12.3573 7.30901 12.335C7.32679 12.3128 7.34461 12.2908 7.36276 12.269C7.38107 12.2471 7.39976 12.2254 7.41844 12.2038C7.43707 12.1823 7.45576 12.1608 7.47482 12.1395C7.49388 12.1183 7.51337 12.0973 7.53281 12.0764C7.55225 12.0555 7.57168 12.0347 7.5915 12.0142C7.61136 11.9936 7.6316 11.9733 7.6519 11.953C7.67214 11.9328 7.69249 11.9127 7.71311 11.8927C7.73368 11.8729 7.75456 11.8534 7.77556 11.8339C7.79661 11.8143 7.81776 11.7949 7.83918 11.7756C7.86055 11.7565 7.88214 11.7377 7.90389 11.7189C7.92569 11.7001 7.94765 11.6813 7.96982 11.6629C7.99189 11.6445 8.01417 11.6264 8.03662 11.6084C8.05922 11.5903 8.08199 11.5723 8.10497 11.5545C8.12768 11.537 8.15061 11.5197 8.17364 11.5025C8.19705 11.4851 8.22062 11.4679 8.24446 11.4508C8.26777 11.4341 8.29129 11.4177 8.31496 11.4014C8.33923 11.3847 8.36361 11.3682 8.3882 11.3519C8.4121 11.3361 8.43621 11.3205 8.46042 11.3051C8.4855 11.2892 8.51073 11.2734 8.53613 11.258C8.56061 11.243 8.58526 11.2283 8.61007 11.2138C8.63584 11.1987 8.66183 11.1838 8.68798 11.1692C8.71305 11.1551 8.73829 11.1412 8.76368 11.1275C8.79026 11.1133 8.81705 11.0993 8.84401 11.0854C8.86957 11.0722 8.89523 11.0593 8.92111 11.0466C8.94146 11.0366 8.96203 11.0269 8.98259 11.0172C9.58606 11.3344 10.2722 11.5149 11 11.5149C11.7278 11.5149 12.4139 11.3344 13.0174 11.0172C13.0378 11.0269 13.0582 11.0365 13.0784 11.0464C13.1046 11.0592 13.1305 11.0724 13.1564 11.0856C13.183 11.0993 13.2095 11.1132 13.2358 11.1273C13.2615 11.1411 13.287 11.1551 13.3123 11.1694C13.3382 11.1839 13.3638 11.1985 13.3893 11.2135C13.4145 11.2282 13.4394 11.2432 13.4642 11.2583C13.4893 11.2736 13.5142 11.2891 13.5389 11.3048C13.5635 11.3204 13.5879 11.3362 13.6121 11.3523C13.6364 11.3683 13.6605 11.3846 13.6844 11.4011C13.7083 11.4176 13.7321 11.4342 13.7557 11.4511C13.7793 11.4679 13.8026 11.485 13.8258 11.5023C13.8491 11.5196 13.8722 11.537 13.8951 11.5547C13.9179 11.5723 13.9405 11.5902 13.9629 11.6082C13.9855 11.6263 14.0079 11.6445 14.0301 11.6629C14.0522 11.6813 14.074 11.6999 14.0957 11.7187C14.1175 11.7375 14.1393 11.7565 14.1608 11.7757C14.182 11.7948 14.203 11.8141 14.2239 11.8335C14.2451 11.8532 14.2662 11.8729 14.2869 11.893C14.3074 11.9127 14.3275 11.9326 14.3476 11.9527C14.368 11.9731 14.3884 11.9935 14.4084 12.0142C14.428 12.0346 14.4474 12.0553 14.4667 12.076C14.4864 12.0971 14.506 12.1183 14.5252 12.1397C14.5441 12.1607 14.5626 12.182 14.5811 12.2034C14.5999 12.2252 14.6188 12.247 14.6372 12.2691C14.6553 12.2907 14.6729 12.3127 14.6906 12.3346C14.7087 12.3571 14.7267 12.3795 14.7443 12.4022C14.7616 12.4245 14.7784 12.4471 14.7953 12.4697C14.8124 12.4927 14.8296 12.5157 14.8464 12.539C14.8629 12.562 14.8789 12.5853 14.895 12.6085C14.9112 12.632 14.9276 12.6556 14.9434 12.6794C14.9591 12.703 14.9742 12.7268 14.9895 12.7507C15.0049 12.7748 15.0203 12.7988 15.0353 12.8232C15.0501 12.8473 15.0644 12.8718 15.0788 12.8962C15.0933 12.9208 15.1079 12.9453 15.1219 12.9702C15.1359 12.995 15.1494 13.0201 15.163 13.0451C15.1765 13.0701 15.1901 13.095 15.2032 13.1202C15.2164 13.1456 15.2289 13.1715 15.2417 13.1972C15.2542 13.2225 15.267 13.2477 15.279 13.2733C15.2914 13.2994 15.3031 13.3257 15.3149 13.352C15.3265 13.3777 15.3383 13.4033 15.3494 13.4292C15.3608 13.4558 15.3715 13.4827 15.3825 13.5096C15.3931 13.5357 15.4039 13.5616 15.4141 13.588C15.4246 13.6152 15.4344 13.6427 15.4445 13.6702C15.4541 13.6965 15.4639 13.7226 15.473 13.7491C15.4827 13.7771 15.4916 13.8054 15.5007 13.8336C15.5093 13.8599 15.5181 13.8862 15.5262 13.9127C15.5349 13.9414 15.5428 13.9703 15.5511 13.9991C15.5586 14.0256 15.5664 14.052 15.5735 14.0787C15.5813 14.108 15.5882 14.1377 15.5955 14.1673C15.602 14.1937 15.6088 14.2201 15.6148 14.2468C15.6216 14.277 15.6275 14.3074 15.6338 14.3377C15.6392 14.3641 15.645 14.3904 15.65 14.4169C15.6559 14.4479 15.6607 14.4792 15.666 14.5105C15.6703 14.5366 15.6751 14.5626 15.6791 14.5889C15.6839 14.6213 15.6878 14.6539 15.6919 14.6865C15.6952 14.7119 15.699 14.7371 15.7018 14.7626C15.7057 14.7971 15.7085 14.8318 15.7116 14.8665C15.7137 14.8903 15.7164 14.914 15.7182 14.9379C15.7212 14.9773 15.7229 15.0169 15.7249 15.0565C15.7258 15.0759 15.7274 15.0952 15.7281 15.1146C15.7303 15.1739 15.7314 15.2332 15.7314 15.2928V15.9006V16.6393H6.26848ZM16.7868 14.8268C16.7762 14.696 16.7611 14.566 16.7419 14.4368C16.7388 14.4163 16.7352 14.396 16.7319 14.3756C16.7244 14.3289 16.7166 14.2822 16.708 14.2357C16.7034 14.2112 16.6984 14.1869 16.6935 14.1624C16.6851 14.12 16.6763 14.0776 16.6669 14.0354C16.6612 14.0099 16.6553 13.9845 16.6493 13.9591C16.6395 13.9177 16.6292 13.8764 16.6184 13.8352C16.6119 13.8102 16.6054 13.7853 16.5986 13.7604C16.5868 13.7176 16.5742 13.6749 16.5615 13.6324C16.5547 13.6099 16.5483 13.5874 16.5412 13.565C16.5254 13.5146 16.5086 13.4645 16.4914 13.4144C16.4866 13.4005 16.4822 13.3863 16.4772 13.3724C16.4546 13.3082 16.4308 13.2444 16.4058 13.181C16.4004 13.1674 16.3946 13.154 16.3891 13.1404C16.3693 13.0912 16.349 13.0421 16.3278 12.9933C16.3184 12.9717 16.3085 12.9503 16.2988 12.9288C16.2805 12.8882 16.2621 12.8477 16.2428 12.8076C16.2316 12.7841 16.22 12.7607 16.2085 12.7373C16.1896 12.6992 16.1704 12.6613 16.1507 12.6235C16.1383 12.5999 16.1259 12.5764 16.1132 12.5529C16.0928 12.5152 16.0719 12.4777 16.0506 12.4403C16.0378 12.4179 16.0252 12.3954 16.0122 12.3731C15.9885 12.3328 15.9641 12.2929 15.9394 12.2531C15.9279 12.2345 15.9168 12.2158 15.9051 12.1973C15.8683 12.1394 15.8306 12.0819 15.7916 12.025C15.7553 11.9721 15.718 11.9201 15.6802 11.8686C15.6692 11.8536 15.6581 11.8389 15.647 11.8241C15.618 11.7852 15.5885 11.7469 15.5586 11.7089C15.5478 11.6952 15.5371 11.6813 15.5261 11.6678C15.4865 11.6183 15.4461 11.5693 15.405 11.5212C15.3996 11.515 15.3941 11.5089 15.3887 11.5027C15.3524 11.4607 15.3154 11.4192 15.278 11.3783C15.2651 11.3642 15.2522 11.3503 15.2392 11.3364C15.206 11.3008 15.1724 11.2656 15.1383 11.2309C15.1271 11.2195 15.1161 11.2079 15.1048 11.1966C15.0605 11.1521 15.0155 11.1083 14.9698 11.0654C14.9604 11.0565 14.9508 11.0479 14.9413 11.0391C14.904 11.0045 14.8663 10.9704 14.8282 10.9368C14.8137 10.924 14.7991 10.9113 14.7845 10.8987C14.7465 10.8658 14.7081 10.8336 14.6692 10.8018C14.6587 10.7931 14.6483 10.7843 14.6377 10.7757C14.589 10.7364 14.5397 10.6979 14.4898 10.6603C14.4773 10.6509 14.4647 10.6417 14.4522 10.6324C14.4131 10.6034 14.3737 10.5749 14.3339 10.5469C14.3182 10.5358 14.3026 10.5249 14.2869 10.514C14.2425 10.4834 14.1976 10.4533 14.1523 10.4239C14.1444 10.4187 14.1366 10.4134 14.1287 10.4083C14.0829 10.3789 14.0368 10.3501 13.9902 10.3219C14.0023 10.3105 14.0135 10.2983 14.0254 10.2867C14.0587 10.2545 14.0914 10.2217 14.1236 10.1884C14.1416 10.1699 14.1595 10.1512 14.1771 10.1323C14.2123 10.0947 14.2465 10.0564 14.2803 10.0176C14.2947 10.0011 14.3092 9.98473 14.3233 9.96798C14.3593 9.92535 14.3943 9.8818 14.4287 9.83772C14.44 9.82333 14.4516 9.80915 14.4626 9.7946C14.4972 9.74923 14.5305 9.70295 14.5633 9.65623C14.7728 9.687 14.9839 9.70257 15.1944 9.70257C15.9222 9.70257 16.6083 9.52205 17.2118 9.20478C18.8685 9.98967 19.9259 11.641 19.9259 13.4805V14.8268H16.7868Z"/>
</mask>
<path d="M20.9999 13.4804C20.9999 12.3101 20.6495 11.1801 19.9864 10.2124C19.5094 9.51647 18.8952 8.93851 18.1834 8.50901C19.0214 7.71542 19.5458 6.59376 19.5458 5.35123C19.5458 2.95198 17.5938 1 15.1946 1C13.7719 1 12.4392 1.7036 11.6297 2.85861C11.424 2.82865 11.2139 2.81248 11 2.81248C10.7861 2.81248 10.576 2.8287 10.3703 2.85861C9.56071 1.7036 8.22803 1 6.80542 1C4.40617 1 2.45419 2.95198 2.45419 5.35123C2.45419 6.59376 2.97851 7.71542 3.81656 8.50901C3.10474 8.93845 2.49054 9.51647 2.01363 10.2124C1.35051 11.1801 1 12.3101 1 13.4804V15.9007H5.19461V17.7131H16.8054V15.9007H21V13.4804H20.9999ZM15.1946 2.07393C17.0017 2.07393 18.4719 3.54412 18.4719 5.35129C18.4719 7.15845 17.0017 8.62864 15.1946 8.62864C15.1622 8.62864 15.1298 8.62816 15.0974 8.62719C15.0999 8.62032 15.1019 8.61329 15.1043 8.60641C15.1603 8.4478 15.2069 8.2849 15.2444 8.1185C15.247 8.10669 15.25 8.09498 15.2525 8.08311C15.2622 8.03823 15.2708 7.99291 15.2791 7.94748C15.283 7.92601 15.287 7.90458 15.2906 7.88305C15.2974 7.84251 15.3035 7.80181 15.3092 7.76095C15.3131 7.73255 15.3166 7.70414 15.32 7.67569C15.3243 7.6396 15.3284 7.60347 15.3318 7.56712C15.3352 7.53001 15.3378 7.49286 15.3403 7.45565C15.3422 7.42633 15.3446 7.39712 15.3459 7.36764C15.3489 7.30445 15.3506 7.24114 15.3508 7.17778C15.3508 7.17311 15.3512 7.16855 15.3512 7.16382C15.3512 7.1613 15.3509 7.15878 15.3509 7.15625C15.3508 7.09155 15.349 7.02723 15.3461 6.96312C15.3452 6.94448 15.3441 6.92591 15.343 6.90733C15.3398 6.85283 15.3357 6.7986 15.3306 6.74464C15.3294 6.73239 15.3284 6.72015 15.3272 6.70796C15.1649 5.13962 14.1741 3.79723 12.7448 3.17631C13.3607 2.48436 14.2516 2.07393 15.1946 2.07393ZM9.86602 4.08862C9.87649 4.08481 9.88706 4.08121 9.89753 4.07746C9.93013 4.0658 9.96299 4.05474 9.99601 4.04406C10.021 4.03606 10.0462 4.02833 10.0716 4.02092C10.09 4.01549 10.1084 4.01028 10.127 4.00513C10.16 3.99606 10.1933 3.9872 10.2268 3.97909C10.4749 3.91884 10.7336 3.88614 10.9999 3.88614C11.2663 3.88636 11.5252 3.91911 11.7733 3.97936C11.8066 3.98741 11.8396 3.99622 11.8726 4.00524C11.8913 4.01045 11.9101 4.01571 11.9288 4.02124C11.9538 4.02859 11.9787 4.03622 12.0035 4.04411C12.0369 4.0549 12.0701 4.06607 12.1031 4.07788C12.1133 4.08148 12.1234 4.08492 12.1335 4.08862C13.2296 4.49396 14.0513 5.46941 14.2373 6.6532C14.2388 6.66265 14.2402 6.67215 14.2416 6.68165C14.2475 6.72176 14.2525 6.76219 14.257 6.80273C14.2586 6.81766 14.2603 6.83253 14.2618 6.84751C14.2653 6.88451 14.2679 6.92177 14.2703 6.95914C14.2713 6.97514 14.2726 6.99109 14.2734 7.00715C14.2756 7.05488 14.2768 7.10288 14.277 7.15115C14.277 7.15534 14.2773 7.15942 14.2773 7.16361C14.2773 7.16554 14.2772 7.16753 14.2772 7.16946C14.2771 7.21618 14.2757 7.26257 14.2736 7.3088C14.273 7.32335 14.2723 7.3379 14.2715 7.3524C14.269 7.39707 14.2656 7.44153 14.2613 7.48566C14.2597 7.50274 14.2574 7.51976 14.2555 7.53678C14.2522 7.56535 14.2486 7.59386 14.2446 7.62221C14.2415 7.64427 14.2383 7.6664 14.2348 7.68836C14.2294 7.72181 14.2234 7.75505 14.2169 7.78817C14.2112 7.81765 14.2049 7.84702 14.1983 7.87634C14.1944 7.894 14.1903 7.91167 14.1861 7.92923C14.1756 7.97277 14.1641 8.01605 14.1519 8.05917C14.147 8.07629 14.1425 8.09353 14.1373 8.1105C14.1298 8.1352 14.1218 8.15968 14.1138 8.18417C14.1073 8.20376 14.1007 8.22325 14.0939 8.24269C14.0862 8.26476 14.0786 8.28688 14.0704 8.30879C14.0565 8.346 14.0419 8.38289 14.0267 8.41945C14.0199 8.43577 14.0127 8.45194 14.0057 8.46821C13.9924 8.49865 13.9788 8.52893 13.9646 8.55889C13.963 8.56244 13.9613 8.56598 13.9596 8.56953C13.9545 8.58016 13.9495 8.59084 13.9443 8.60147C13.9284 8.6339 13.9118 8.66596 13.8949 8.69775C13.8883 8.7101 13.8819 8.72261 13.8751 8.7349C13.8747 8.73571 13.8743 8.73646 13.8738 8.73721C13.8552 8.77104 13.8359 8.80433 13.8162 8.8374C13.8083 8.8505 13.8006 8.86366 13.7926 8.8766C13.7711 8.91145 13.749 8.94592 13.7263 8.97985C13.7122 9.00095 13.6974 9.02163 13.6828 9.04241C13.6704 9.06002 13.6581 9.07768 13.6454 9.09503C13.6289 9.11747 13.6121 9.13965 13.595 9.16171C13.5834 9.17669 13.5717 9.19157 13.5599 9.20639C13.5418 9.22894 13.5236 9.25138 13.5051 9.27345C13.4935 9.28714 13.4816 9.30056 13.4699 9.31404C13.4506 9.33622 13.4313 9.35845 13.4114 9.38009C13.3996 9.39292 13.3874 9.40527 13.3753 9.41794C13.343 9.45203 13.3099 9.48538 13.2762 9.51808C13.2562 9.53746 13.2363 9.5569 13.2158 9.57575C13.2016 9.58879 13.187 9.60147 13.1726 9.6143C13.1491 9.63518 13.1254 9.65586 13.1013 9.67605C13.089 9.6863 13.0767 9.69645 13.0643 9.70654C13.0351 9.73028 13.0056 9.75353 12.9756 9.77629C12.9674 9.78247 12.9594 9.78875 12.9511 9.79487C12.4056 10.2004 11.7304 10.4408 10.9999 10.4408C10.2694 10.4408 9.59406 10.2004 9.04853 9.79471C9.04047 9.78869 9.03258 9.78252 9.02458 9.77645C8.99446 9.75363 8.96477 9.73022 8.9355 9.70638C8.92321 9.69634 8.91091 9.6863 8.89878 9.6761C8.87456 9.6558 8.85083 9.63502 8.8272 9.61408C8.81287 9.6013 8.79837 9.58874 8.78425 9.57575C8.76368 9.55685 8.74371 9.53735 8.72363 9.51797C8.68975 9.48516 8.65662 9.45171 8.62419 9.41751C8.61232 9.405 8.60019 9.39281 8.58853 9.38014C8.56861 9.35845 8.54934 9.33616 8.53001 9.31399C8.51825 9.30051 8.50644 9.28714 8.49489 9.27345C8.47626 9.25138 8.45811 9.22894 8.44007 9.20644C8.42826 9.19162 8.4165 9.17675 8.4049 9.16171C8.38788 9.1397 8.37108 9.11752 8.35459 9.09508C8.34187 9.07768 8.32946 9.05996 8.31706 9.0423C8.30245 9.02157 8.28774 9.00095 8.27367 8.97991C8.25085 8.94581 8.22868 8.91123 8.20715 8.87628C8.19926 8.86344 8.19163 8.8505 8.1839 8.83756C8.16387 8.80401 8.14427 8.77029 8.12543 8.73598C8.1185 8.72336 8.11195 8.71052 8.10513 8.69785C8.08816 8.66596 8.07157 8.6338 8.05562 8.60131C8.04993 8.58977 8.0444 8.57812 8.03887 8.56652C8.03801 8.56475 8.03721 8.56297 8.0364 8.5612C8.02153 8.52985 8.0073 8.49817 7.99339 8.46622C7.98679 8.45102 7.98008 8.43588 7.97374 8.42063C7.95817 8.38326 7.9433 8.34557 7.92907 8.30755C7.92139 8.28704 7.9143 8.26632 7.90705 8.24564C7.89959 8.22444 7.89239 8.20307 7.88536 8.18164C7.87779 8.15845 7.87017 8.13525 7.86308 8.11195C7.8525 8.0771 7.84251 8.04204 7.83312 8.00676C7.82651 7.98201 7.82055 7.95704 7.81449 7.93213C7.80976 7.91253 7.8052 7.89293 7.80085 7.87322C7.79548 7.84906 7.79006 7.82495 7.78522 7.80068C7.77776 7.76288 7.77094 7.72487 7.76482 7.68664C7.76149 7.66602 7.75859 7.64535 7.75564 7.62473C7.75129 7.59418 7.74737 7.56347 7.74388 7.53265C7.74216 7.51745 7.74017 7.50225 7.73862 7.48706C7.73416 7.4418 7.73078 7.39621 7.7282 7.35046C7.72745 7.33731 7.72686 7.32415 7.72627 7.311C7.72407 7.26208 7.72251 7.21301 7.72251 7.16361C7.72251 7.11067 7.72401 7.0581 7.72654 7.00575C7.72723 6.99152 7.72841 6.9774 7.72922 6.96322C7.73158 6.92392 7.73443 6.88472 7.73819 6.84574C7.73948 6.83216 7.74103 6.81863 7.74248 6.8051C7.7471 6.76289 7.75231 6.7209 7.75854 6.67918C7.75972 6.67108 7.7609 6.66291 7.76219 6.65481C7.94759 5.47032 8.76954 4.49423 9.86602 4.08862ZM3.52806 5.35129C3.52806 3.54417 4.99825 2.07393 6.80542 2.07393C7.74844 2.07393 8.63928 2.48442 9.2552 3.17621C7.82539 3.79734 6.83436 5.14038 6.67258 6.70936C6.67145 6.71999 6.67065 6.73068 6.66963 6.74136C6.66426 6.79726 6.66002 6.85337 6.6568 6.9098C6.65583 6.92698 6.65475 6.94411 6.65395 6.96134C6.65089 7.02852 6.64879 7.0959 6.64879 7.16377C6.64879 7.23228 6.65078 7.30064 6.654 7.36893C6.65529 7.39642 6.65755 7.42365 6.65932 7.45098C6.66195 7.49028 6.66463 7.52959 6.66829 7.56878C6.67151 7.60363 6.67548 7.63826 6.67956 7.67289C6.68311 7.70307 6.68686 7.73314 6.69105 7.76321C6.69653 7.80267 6.70243 7.84198 6.70893 7.88112C6.71285 7.90437 6.71715 7.92756 6.72139 7.95076C6.72944 7.99457 6.73766 8.03828 6.747 8.08161C6.75011 8.09589 6.75366 8.11007 6.75688 8.1243C6.79334 8.28554 6.8386 8.4434 6.89251 8.59734C6.89595 8.60727 6.89895 8.61731 6.90244 8.62719C6.87007 8.62816 6.83764 8.62864 6.80531 8.62864C4.99825 8.62859 3.52806 7.1584 3.52806 5.35129ZM6.09489 12.1973C6.08308 12.2159 6.0718 12.2349 6.0602 12.2536C6.03567 12.2932 6.01134 12.333 5.98782 12.3731C5.97467 12.3955 5.962 12.418 5.94922 12.4406C5.92806 12.4778 5.90718 12.5151 5.88688 12.5527C5.8741 12.5764 5.86154 12.6002 5.84908 12.624C5.82954 12.6614 5.81047 12.6991 5.79179 12.7368C5.78003 12.7605 5.76833 12.7842 5.75694 12.8081C5.73793 12.8478 5.71962 12.8879 5.70153 12.9281C5.6917 12.95 5.68161 12.9717 5.67211 12.9936C5.65117 13.0417 5.63119 13.0902 5.61159 13.1389C5.60585 13.1531 5.59973 13.1672 5.59414 13.1814C5.56928 13.2446 5.5455 13.3082 5.52294 13.3722C5.51779 13.3868 5.51317 13.4016 5.50807 13.4163C5.4911 13.4656 5.47457 13.515 5.45894 13.5647C5.4518 13.5875 5.4452 13.6105 5.43832 13.6333C5.42571 13.6754 5.4133 13.7176 5.40165 13.76C5.39472 13.7852 5.38812 13.8105 5.38152 13.8359C5.37088 13.8766 5.36068 13.9174 5.35102 13.9583C5.34484 13.9843 5.33883 14.0102 5.33308 14.0362C5.32385 14.0777 5.3152 14.1194 5.30688 14.1611C5.30189 14.1862 5.29673 14.2112 5.29206 14.2364C5.28363 14.2818 5.27606 14.3275 5.2687 14.3732C5.26527 14.3946 5.26146 14.416 5.25823 14.4375C5.24825 14.5046 5.23917 14.5719 5.23155 14.6395C5.23144 14.6403 5.23139 14.6411 5.23133 14.6419C5.22441 14.7034 5.21845 14.765 5.21345 14.8268H2.07387V13.4804C2.07387 11.641 3.13132 9.98962 4.78798 9.20472C5.3915 9.52194 6.07755 9.70252 6.80537 9.70252C7.01585 9.70252 7.22697 9.68695 7.43648 9.65612C7.46913 9.70268 7.50231 9.74875 7.53667 9.79396C7.54827 9.80915 7.5603 9.82397 7.57211 9.83901C7.60605 9.88239 7.64046 9.92529 7.67601 9.96733C7.69056 9.98457 7.70549 10.0014 7.72031 10.0185C7.7536 10.0567 7.78742 10.0944 7.822 10.1314C7.84015 10.1509 7.85862 10.1701 7.87709 10.1892C7.90872 10.2218 7.94077 10.254 7.97337 10.2856C7.98561 10.2974 7.99715 10.31 8.0095 10.3218C7.96284 10.35 7.91661 10.3788 7.87081 10.4083C7.86335 10.4131 7.85604 10.4181 7.84863 10.423C7.80283 10.4527 7.75752 10.4831 7.71263 10.5141C7.69711 10.5248 7.68165 10.5357 7.66618 10.5465C7.62618 10.5747 7.58661 10.6034 7.54736 10.6325C7.53496 10.6418 7.52239 10.6508 7.5101 10.6601C7.46016 10.6979 7.41082 10.7363 7.36212 10.7756C7.35148 10.7842 7.34107 10.7931 7.33044 10.8018C7.29167 10.8335 7.25328 10.8658 7.21537 10.8985C7.20066 10.9112 7.18605 10.924 7.17145 10.9368C7.13349 10.9703 7.09601 11.0042 7.05891 11.0386C7.04924 11.0476 7.03936 11.0564 7.02975 11.0655C6.98422 11.1083 6.93939 11.152 6.8952 11.1964C6.8837 11.2079 6.87248 11.2197 6.8611 11.2313C6.82727 11.2658 6.79382 11.3007 6.7608 11.3361C6.7477 11.3502 6.7346 11.3642 6.7216 11.3785C6.68445 11.4191 6.64783 11.4602 6.6118 11.5019C6.60616 11.5085 6.60031 11.5148 6.59467 11.5214C6.5536 11.5693 6.51343 11.6182 6.47381 11.6675C6.46275 11.6813 6.45195 11.6953 6.44105 11.7092C6.41125 11.747 6.38188 11.7852 6.353 11.8238C6.34183 11.8388 6.33061 11.8536 6.3196 11.8686C6.2818 11.9202 6.24448 11.9721 6.20824 12.025C6.16931 12.0818 6.13162 12.1394 6.09489 12.1973ZM6.26848 16.6393V15.9007V15.2929C6.26848 15.2333 6.26961 15.1739 6.27181 15.1147C6.27251 15.0952 6.27407 15.0759 6.27503 15.0564C6.27697 15.0169 6.27879 14.9773 6.28169 14.938C6.28346 14.9141 6.28615 14.8904 6.2883 14.8666C6.29141 14.8319 6.2942 14.7971 6.29807 14.7627C6.30091 14.7374 6.30462 14.7124 6.30784 14.6872C6.31203 14.6544 6.31595 14.6215 6.32078 14.5889C6.3247 14.5629 6.32942 14.5371 6.33372 14.5112C6.33898 14.4798 6.34387 14.4482 6.34977 14.4169C6.35477 14.3904 6.36057 14.3642 6.36599 14.3378C6.37222 14.3075 6.37818 14.277 6.385 14.2468C6.39101 14.2201 6.39788 14.1938 6.40433 14.1673C6.41158 14.1377 6.4185 14.108 6.42629 14.0787C6.43338 14.052 6.44121 14.0256 6.44873 13.9991C6.45689 13.9703 6.46484 13.9414 6.47354 13.9127C6.48165 13.8861 6.49056 13.8597 6.4991 13.8332C6.50822 13.8051 6.51708 13.777 6.5267 13.7491C6.53582 13.7228 6.54565 13.6966 6.55521 13.6705C6.5653 13.6429 6.57518 13.6152 6.58576 13.5878C6.59585 13.5618 6.60659 13.536 6.61706 13.5102C6.62807 13.4831 6.63892 13.456 6.65041 13.4292C6.66152 13.4034 6.67323 13.3778 6.68477 13.3522C6.69664 13.3259 6.70839 13.2994 6.72074 13.2733C6.73283 13.2478 6.7455 13.2226 6.75801 13.1973C6.77079 13.1716 6.78341 13.1457 6.79661 13.1202C6.80966 13.0951 6.82325 13.0703 6.83672 13.0454C6.85036 13.0203 6.86384 12.9951 6.87791 12.9702C6.89187 12.9455 6.90636 12.9211 6.9207 12.8967C6.9352 12.8721 6.94959 12.8475 6.96457 12.8231C6.97944 12.7989 6.9948 12.775 7.0101 12.7511C7.02546 12.7271 7.04071 12.7031 7.05649 12.6793C7.07228 12.6556 7.08849 12.6322 7.10471 12.6088C7.12087 12.5854 7.13698 12.5621 7.15352 12.539C7.17016 12.5158 7.18729 12.4929 7.20442 12.47C7.22138 12.4473 7.2383 12.4246 7.25564 12.4022C7.27315 12.3796 7.29108 12.3573 7.30901 12.335C7.32679 12.3128 7.34461 12.2908 7.36276 12.269C7.38107 12.2471 7.39976 12.2254 7.41844 12.2038C7.43707 12.1823 7.45576 12.1608 7.47482 12.1395C7.49388 12.1183 7.51337 12.0973 7.53281 12.0764C7.55225 12.0555 7.57168 12.0347 7.5915 12.0142C7.61136 11.9936 7.6316 11.9733 7.6519 11.953C7.67214 11.9328 7.69249 11.9127 7.71311 11.8927C7.73368 11.8729 7.75456 11.8534 7.77556 11.8339C7.79661 11.8143 7.81776 11.7949 7.83918 11.7756C7.86055 11.7565 7.88214 11.7377 7.90389 11.7189C7.92569 11.7001 7.94765 11.6813 7.96982 11.6629C7.99189 11.6445 8.01417 11.6264 8.03662 11.6084C8.05922 11.5903 8.08199 11.5723 8.10497 11.5545C8.12768 11.537 8.15061 11.5197 8.17364 11.5025C8.19705 11.4851 8.22062 11.4679 8.24446 11.4508C8.26777 11.4341 8.29129 11.4177 8.31496 11.4014C8.33923 11.3847 8.36361 11.3682 8.3882 11.3519C8.4121 11.3361 8.43621 11.3205 8.46042 11.3051C8.4855 11.2892 8.51073 11.2734 8.53613 11.258C8.56061 11.243 8.58526 11.2283 8.61007 11.2138C8.63584 11.1987 8.66183 11.1838 8.68798 11.1692C8.71305 11.1551 8.73829 11.1412 8.76368 11.1275C8.79026 11.1133 8.81705 11.0993 8.84401 11.0854C8.86957 11.0722 8.89523 11.0593 8.92111 11.0466C8.94146 11.0366 8.96203 11.0269 8.98259 11.0172C9.58606 11.3344 10.2722 11.5149 11 11.5149C11.7278 11.5149 12.4139 11.3344 13.0174 11.0172C13.0378 11.0269 13.0582 11.0365 13.0784 11.0464C13.1046 11.0592 13.1305 11.0724 13.1564 11.0856C13.183 11.0993 13.2095 11.1132 13.2358 11.1273C13.2615 11.1411 13.287 11.1551 13.3123 11.1694C13.3382 11.1839 13.3638 11.1985 13.3893 11.2135C13.4145 11.2282 13.4394 11.2432 13.4642 11.2583C13.4893 11.2736 13.5142 11.2891 13.5389 11.3048C13.5635 11.3204 13.5879 11.3362 13.6121 11.3523C13.6364 11.3683 13.6605 11.3846 13.6844 11.4011C13.7083 11.4176 13.7321 11.4342 13.7557 11.4511C13.7793 11.4679 13.8026 11.485 13.8258 11.5023C13.8491 11.5196 13.8722 11.537 13.8951 11.5547C13.9179 11.5723 13.9405 11.5902 13.9629 11.6082C13.9855 11.6263 14.0079 11.6445 14.0301 11.6629C14.0522 11.6813 14.074 11.6999 14.0957 11.7187C14.1175 11.7375 14.1393 11.7565 14.1608 11.7757C14.182 11.7948 14.203 11.8141 14.2239 11.8335C14.2451 11.8532 14.2662 11.8729 14.2869 11.893C14.3074 11.9127 14.3275 11.9326 14.3476 11.9527C14.368 11.9731 14.3884 11.9935 14.4084 12.0142C14.428 12.0346 14.4474 12.0553 14.4667 12.076C14.4864 12.0971 14.506 12.1183 14.5252 12.1397C14.5441 12.1607 14.5626 12.182 14.5811 12.2034C14.5999 12.2252 14.6188 12.247 14.6372 12.2691C14.6553 12.2907 14.6729 12.3127 14.6906 12.3346C14.7087 12.3571 14.7267 12.3795 14.7443 12.4022C14.7616 12.4245 14.7784 12.4471 14.7953 12.4697C14.8124 12.4927 14.8296 12.5157 14.8464 12.539C14.8629 12.562 14.8789 12.5853 14.895 12.6085C14.9112 12.632 14.9276 12.6556 14.9434 12.6794C14.9591 12.703 14.9742 12.7268 14.9895 12.7507C15.0049 12.7748 15.0203 12.7988 15.0353 12.8232C15.0501 12.8473 15.0644 12.8718 15.0788 12.8962C15.0933 12.9208 15.1079 12.9453 15.1219 12.9702C15.1359 12.995 15.1494 13.0201 15.163 13.0451C15.1765 13.0701 15.1901 13.095 15.2032 13.1202C15.2164 13.1456 15.2289 13.1715 15.2417 13.1972C15.2542 13.2225 15.267 13.2477 15.279 13.2733C15.2914 13.2994 15.3031 13.3257 15.3149 13.352C15.3265 13.3777 15.3383 13.4033 15.3494 13.4292C15.3608 13.4558 15.3715 13.4827 15.3825 13.5096C15.3931 13.5357 15.4039 13.5616 15.4141 13.588C15.4246 13.6152 15.4344 13.6427 15.4445 13.6702C15.4541 13.6965 15.4639 13.7226 15.473 13.7491C15.4827 13.7771 15.4916 13.8054 15.5007 13.8336C15.5093 13.8599 15.5181 13.8862 15.5262 13.9127C15.5349 13.9414 15.5428 13.9703 15.5511 13.9991C15.5586 14.0256 15.5664 14.052 15.5735 14.0787C15.5813 14.108 15.5882 14.1377 15.5955 14.1673C15.602 14.1937 15.6088 14.2201 15.6148 14.2468C15.6216 14.277 15.6275 14.3074 15.6338 14.3377C15.6392 14.3641 15.645 14.3904 15.65 14.4169C15.6559 14.4479 15.6607 14.4792 15.666 14.5105C15.6703 14.5366 15.6751 14.5626 15.6791 14.5889C15.6839 14.6213 15.6878 14.6539 15.6919 14.6865C15.6952 14.7119 15.699 14.7371 15.7018 14.7626C15.7057 14.7971 15.7085 14.8318 15.7116 14.8665C15.7137 14.8903 15.7164 14.914 15.7182 14.9379C15.7212 14.9773 15.7229 15.0169 15.7249 15.0565C15.7258 15.0759 15.7274 15.0952 15.7281 15.1146C15.7303 15.1739 15.7314 15.2332 15.7314 15.2928V15.9006V16.6393H6.26848ZM16.7868 14.8268C16.7762 14.696 16.7611 14.566 16.7419 14.4368C16.7388 14.4163 16.7352 14.396 16.7319 14.3756C16.7244 14.3289 16.7166 14.2822 16.708 14.2357C16.7034 14.2112 16.6984 14.1869 16.6935 14.1624C16.6851 14.12 16.6763 14.0776 16.6669 14.0354C16.6612 14.0099 16.6553 13.9845 16.6493 13.9591C16.6395 13.9177 16.6292 13.8764 16.6184 13.8352C16.6119 13.8102 16.6054 13.7853 16.5986 13.7604C16.5868 13.7176 16.5742 13.6749 16.5615 13.6324C16.5547 13.6099 16.5483 13.5874 16.5412 13.565C16.5254 13.5146 16.5086 13.4645 16.4914 13.4144C16.4866 13.4005 16.4822 13.3863 16.4772 13.3724C16.4546 13.3082 16.4308 13.2444 16.4058 13.181C16.4004 13.1674 16.3946 13.154 16.3891 13.1404C16.3693 13.0912 16.349 13.0421 16.3278 12.9933C16.3184 12.9717 16.3085 12.9503 16.2988 12.9288C16.2805 12.8882 16.2621 12.8477 16.2428 12.8076C16.2316 12.7841 16.22 12.7607 16.2085 12.7373C16.1896 12.6992 16.1704 12.6613 16.1507 12.6235C16.1383 12.5999 16.1259 12.5764 16.1132 12.5529C16.0928 12.5152 16.0719 12.4777 16.0506 12.4403C16.0378 12.4179 16.0252 12.3954 16.0122 12.3731C15.9885 12.3328 15.9641 12.2929 15.9394 12.2531C15.9279 12.2345 15.9168 12.2158 15.9051 12.1973C15.8683 12.1394 15.8306 12.0819 15.7916 12.025C15.7553 11.9721 15.718 11.9201 15.6802 11.8686C15.6692 11.8536 15.6581 11.8389 15.647 11.8241C15.618 11.7852 15.5885 11.7469 15.5586 11.7089C15.5478 11.6952 15.5371 11.6813 15.5261 11.6678C15.4865 11.6183 15.4461 11.5693 15.405 11.5212C15.3996 11.515 15.3941 11.5089 15.3887 11.5027C15.3524 11.4607 15.3154 11.4192 15.278 11.3783C15.2651 11.3642 15.2522 11.3503 15.2392 11.3364C15.206 11.3008 15.1724 11.2656 15.1383 11.2309C15.1271 11.2195 15.1161 11.2079 15.1048 11.1966C15.0605 11.1521 15.0155 11.1083 14.9698 11.0654C14.9604 11.0565 14.9508 11.0479 14.9413 11.0391C14.904 11.0045 14.8663 10.9704 14.8282 10.9368C14.8137 10.924 14.7991 10.9113 14.7845 10.8987C14.7465 10.8658 14.7081 10.8336 14.6692 10.8018C14.6587 10.7931 14.6483 10.7843 14.6377 10.7757C14.589 10.7364 14.5397 10.6979 14.4898 10.6603C14.4773 10.6509 14.4647 10.6417 14.4522 10.6324C14.4131 10.6034 14.3737 10.5749 14.3339 10.5469C14.3182 10.5358 14.3026 10.5249 14.2869 10.514C14.2425 10.4834 14.1976 10.4533 14.1523 10.4239C14.1444 10.4187 14.1366 10.4134 14.1287 10.4083C14.0829 10.3789 14.0368 10.3501 13.9902 10.3219C14.0023 10.3105 14.0135 10.2983 14.0254 10.2867C14.0587 10.2545 14.0914 10.2217 14.1236 10.1884C14.1416 10.1699 14.1595 10.1512 14.1771 10.1323C14.2123 10.0947 14.2465 10.0564 14.2803 10.0176C14.2947 10.0011 14.3092 9.98473 14.3233 9.96798C14.3593 9.92535 14.3943 9.8818 14.4287 9.83772C14.44 9.82333 14.4516 9.80915 14.4626 9.7946C14.4972 9.74923 14.5305 9.70295 14.5633 9.65623C14.7728 9.687 14.9839 9.70257 15.1944 9.70257C15.9222 9.70257 16.6083 9.52205 17.2118 9.20478C18.8685 9.98967 19.9259 11.641 19.9259 13.4805V14.8268H16.7868Z" fill="#1B9E84"/>
<path d="M20.9999 13.4804C20.9999 12.3101 20.6495 11.1801 19.9864 10.2124C19.5094 9.51647 18.8952 8.93851 18.1834 8.50901C19.0214 7.71542 19.5458 6.59376 19.5458 5.35123C19.5458 2.95198 17.5938 1 15.1946 1C13.7719 1 12.4392 1.7036 11.6297 2.85861C11.424 2.82865 11.2139 2.81248 11 2.81248C10.7861 2.81248 10.576 2.8287 10.3703 2.85861C9.56071 1.7036 8.22803 1 6.80542 1C4.40617 1 2.45419 2.95198 2.45419 5.35123C2.45419 6.59376 2.97851 7.71542 3.81656 8.50901C3.10474 8.93845 2.49054 9.51647 2.01363 10.2124C1.35051 11.1801 1 12.3101 1 13.4804V15.9007H5.19461V17.7131H16.8054V15.9007H21V13.4804H20.9999ZM15.1946 2.07393C17.0017 2.07393 18.4719 3.54412 18.4719 5.35129C18.4719 7.15845 17.0017 8.62864 15.1946 8.62864C15.1622 8.62864 15.1298 8.62816 15.0974 8.62719C15.0999 8.62032 15.1019 8.61329 15.1043 8.60641C15.1603 8.4478 15.2069 8.2849 15.2444 8.1185C15.247 8.10669 15.25 8.09498 15.2525 8.08311C15.2622 8.03823 15.2708 7.99291 15.2791 7.94748C15.283 7.92601 15.287 7.90458 15.2906 7.88305C15.2974 7.84251 15.3035 7.80181 15.3092 7.76095C15.3131 7.73255 15.3166 7.70414 15.32 7.67569C15.3243 7.6396 15.3284 7.60347 15.3318 7.56712C15.3352 7.53001 15.3378 7.49286 15.3403 7.45565C15.3422 7.42633 15.3446 7.39712 15.3459 7.36764C15.3489 7.30445 15.3506 7.24114 15.3508 7.17778C15.3508 7.17311 15.3512 7.16855 15.3512 7.16382C15.3512 7.1613 15.3509 7.15878 15.3509 7.15625C15.3508 7.09155 15.349 7.02723 15.3461 6.96312C15.3452 6.94448 15.3441 6.92591 15.343 6.90733C15.3398 6.85283 15.3357 6.7986 15.3306 6.74464C15.3294 6.73239 15.3284 6.72015 15.3272 6.70796C15.1649 5.13962 14.1741 3.79723 12.7448 3.17631C13.3607 2.48436 14.2516 2.07393 15.1946 2.07393ZM9.86602 4.08862C9.87649 4.08481 9.88706 4.08121 9.89753 4.07746C9.93013 4.0658 9.96299 4.05474 9.99601 4.04406C10.021 4.03606 10.0462 4.02833 10.0716 4.02092C10.09 4.01549 10.1084 4.01028 10.127 4.00513C10.16 3.99606 10.1933 3.9872 10.2268 3.97909C10.4749 3.91884 10.7336 3.88614 10.9999 3.88614C11.2663 3.88636 11.5252 3.91911 11.7733 3.97936C11.8066 3.98741 11.8396 3.99622 11.8726 4.00524C11.8913 4.01045 11.9101 4.01571 11.9288 4.02124C11.9538 4.02859 11.9787 4.03622 12.0035 4.04411C12.0369 4.0549 12.0701 4.06607 12.1031 4.07788C12.1133 4.08148 12.1234 4.08492 12.1335 4.08862C13.2296 4.49396 14.0513 5.46941 14.2373 6.6532C14.2388 6.66265 14.2402 6.67215 14.2416 6.68165C14.2475 6.72176 14.2525 6.76219 14.257 6.80273C14.2586 6.81766 14.2603 6.83253 14.2618 6.84751C14.2653 6.88451 14.2679 6.92177 14.2703 6.95914C14.2713 6.97514 14.2726 6.99109 14.2734 7.00715C14.2756 7.05488 14.2768 7.10288 14.277 7.15115C14.277 7.15534 14.2773 7.15942 14.2773 7.16361C14.2773 7.16554 14.2772 7.16753 14.2772 7.16946C14.2771 7.21618 14.2757 7.26257 14.2736 7.3088C14.273 7.32335 14.2723 7.3379 14.2715 7.3524C14.269 7.39707 14.2656 7.44153 14.2613 7.48566C14.2597 7.50274 14.2574 7.51976 14.2555 7.53678C14.2522 7.56535 14.2486 7.59386 14.2446 7.62221C14.2415 7.64427 14.2383 7.6664 14.2348 7.68836C14.2294 7.72181 14.2234 7.75505 14.2169 7.78817C14.2112 7.81765 14.2049 7.84702 14.1983 7.87634C14.1944 7.894 14.1903 7.91167 14.1861 7.92923C14.1756 7.97277 14.1641 8.01605 14.1519 8.05917C14.147 8.07629 14.1425 8.09353 14.1373 8.1105C14.1298 8.1352 14.1218 8.15968 14.1138 8.18417C14.1073 8.20376 14.1007 8.22325 14.0939 8.24269C14.0862 8.26476 14.0786 8.28688 14.0704 8.30879C14.0565 8.346 14.0419 8.38289 14.0267 8.41945C14.0199 8.43577 14.0127 8.45194 14.0057 8.46821C13.9924 8.49865 13.9788 8.52893 13.9646 8.55889C13.963 8.56244 13.9613 8.56598 13.9596 8.56953C13.9545 8.58016 13.9495 8.59084 13.9443 8.60147C13.9284 8.6339 13.9118 8.66596 13.8949 8.69775C13.8883 8.7101 13.8819 8.72261 13.8751 8.7349C13.8747 8.73571 13.8743 8.73646 13.8738 8.73721C13.8552 8.77104 13.8359 8.80433 13.8162 8.8374C13.8083 8.8505 13.8006 8.86366 13.7926 8.8766C13.7711 8.91145 13.749 8.94592 13.7263 8.97985C13.7122 9.00095 13.6974 9.02163 13.6828 9.04241C13.6704 9.06002 13.6581 9.07768 13.6454 9.09503C13.6289 9.11747 13.6121 9.13965 13.595 9.16171C13.5834 9.17669 13.5717 9.19157 13.5599 9.20639C13.5418 9.22894 13.5236 9.25138 13.5051 9.27345C13.4935 9.28714 13.4816 9.30056 13.4699 9.31404C13.4506 9.33622 13.4313 9.35845 13.4114 9.38009C13.3996 9.39292 13.3874 9.40527 13.3753 9.41794C13.343 9.45203 13.3099 9.48538 13.2762 9.51808C13.2562 9.53746 13.2363 9.5569 13.2158 9.57575C13.2016 9.58879 13.187 9.60147 13.1726 9.6143C13.1491 9.63518 13.1254 9.65586 13.1013 9.67605C13.089 9.6863 13.0767 9.69645 13.0643 9.70654C13.0351 9.73028 13.0056 9.75353 12.9756 9.77629C12.9674 9.78247 12.9594 9.78875 12.9511 9.79487C12.4056 10.2004 11.7304 10.4408 10.9999 10.4408C10.2694 10.4408 9.59406 10.2004 9.04853 9.79471C9.04047 9.78869 9.03258 9.78252 9.02458 9.77645C8.99446 9.75363 8.96477 9.73022 8.9355 9.70638C8.92321 9.69634 8.91091 9.6863 8.89878 9.6761C8.87456 9.6558 8.85083 9.63502 8.8272 9.61408C8.81287 9.6013 8.79837 9.58874 8.78425 9.57575C8.76368 9.55685 8.74371 9.53735 8.72363 9.51797C8.68975 9.48516 8.65662 9.45171 8.62419 9.41751C8.61232 9.405 8.60019 9.39281 8.58853 9.38014C8.56861 9.35845 8.54934 9.33616 8.53001 9.31399C8.51825 9.30051 8.50644 9.28714 8.49489 9.27345C8.47626 9.25138 8.45811 9.22894 8.44007 9.20644C8.42826 9.19162 8.4165 9.17675 8.4049 9.16171C8.38788 9.1397 8.37108 9.11752 8.35459 9.09508C8.34187 9.07768 8.32946 9.05996 8.31706 9.0423C8.30245 9.02157 8.28774 9.00095 8.27367 8.97991C8.25085 8.94581 8.22868 8.91123 8.20715 8.87628C8.19926 8.86344 8.19163 8.8505 8.1839 8.83756C8.16387 8.80401 8.14427 8.77029 8.12543 8.73598C8.1185 8.72336 8.11195 8.71052 8.10513 8.69785C8.08816 8.66596 8.07157 8.6338 8.05562 8.60131C8.04993 8.58977 8.0444 8.57812 8.03887 8.56652C8.03801 8.56475 8.03721 8.56297 8.0364 8.5612C8.02153 8.52985 8.0073 8.49817 7.99339 8.46622C7.98679 8.45102 7.98008 8.43588 7.97374 8.42063C7.95817 8.38326 7.9433 8.34557 7.92907 8.30755C7.92139 8.28704 7.9143 8.26632 7.90705 8.24564C7.89959 8.22444 7.89239 8.20307 7.88536 8.18164C7.87779 8.15845 7.87017 8.13525 7.86308 8.11195C7.8525 8.0771 7.84251 8.04204 7.83312 8.00676C7.82651 7.98201 7.82055 7.95704 7.81449 7.93213C7.80976 7.91253 7.8052 7.89293 7.80085 7.87322C7.79548 7.84906 7.79006 7.82495 7.78522 7.80068C7.77776 7.76288 7.77094 7.72487 7.76482 7.68664C7.76149 7.66602 7.75859 7.64535 7.75564 7.62473C7.75129 7.59418 7.74737 7.56347 7.74388 7.53265C7.74216 7.51745 7.74017 7.50225 7.73862 7.48706C7.73416 7.4418 7.73078 7.39621 7.7282 7.35046C7.72745 7.33731 7.72686 7.32415 7.72627 7.311C7.72407 7.26208 7.72251 7.21301 7.72251 7.16361C7.72251 7.11067 7.72401 7.0581 7.72654 7.00575C7.72723 6.99152 7.72841 6.9774 7.72922 6.96322C7.73158 6.92392 7.73443 6.88472 7.73819 6.84574C7.73948 6.83216 7.74103 6.81863 7.74248 6.8051C7.7471 6.76289 7.75231 6.7209 7.75854 6.67918C7.75972 6.67108 7.7609 6.66291 7.76219 6.65481C7.94759 5.47032 8.76954 4.49423 9.86602 4.08862ZM3.52806 5.35129C3.52806 3.54417 4.99825 2.07393 6.80542 2.07393C7.74844 2.07393 8.63928 2.48442 9.2552 3.17621C7.82539 3.79734 6.83436 5.14038 6.67258 6.70936C6.67145 6.71999 6.67065 6.73068 6.66963 6.74136C6.66426 6.79726 6.66002 6.85337 6.6568 6.9098C6.65583 6.92698 6.65475 6.94411 6.65395 6.96134C6.65089 7.02852 6.64879 7.0959 6.64879 7.16377C6.64879 7.23228 6.65078 7.30064 6.654 7.36893C6.65529 7.39642 6.65755 7.42365 6.65932 7.45098C6.66195 7.49028 6.66463 7.52959 6.66829 7.56878C6.67151 7.60363 6.67548 7.63826 6.67956 7.67289C6.68311 7.70307 6.68686 7.73314 6.69105 7.76321C6.69653 7.80267 6.70243 7.84198 6.70893 7.88112C6.71285 7.90437 6.71715 7.92756 6.72139 7.95076C6.72944 7.99457 6.73766 8.03828 6.747 8.08161C6.75011 8.09589 6.75366 8.11007 6.75688 8.1243C6.79334 8.28554 6.8386 8.4434 6.89251 8.59734C6.89595 8.60727 6.89895 8.61731 6.90244 8.62719C6.87007 8.62816 6.83764 8.62864 6.80531 8.62864C4.99825 8.62859 3.52806 7.1584 3.52806 5.35129ZM6.09489 12.1973C6.08308 12.2159 6.0718 12.2349 6.0602 12.2536C6.03567 12.2932 6.01134 12.333 5.98782 12.3731C5.97467 12.3955 5.962 12.418 5.94922 12.4406C5.92806 12.4778 5.90718 12.5151 5.88688 12.5527C5.8741 12.5764 5.86154 12.6002 5.84908 12.624C5.82954 12.6614 5.81047 12.6991 5.79179 12.7368C5.78003 12.7605 5.76833 12.7842 5.75694 12.8081C5.73793 12.8478 5.71962 12.8879 5.70153 12.9281C5.6917 12.95 5.68161 12.9717 5.67211 12.9936C5.65117 13.0417 5.63119 13.0902 5.61159 13.1389C5.60585 13.1531 5.59973 13.1672 5.59414 13.1814C5.56928 13.2446 5.5455 13.3082 5.52294 13.3722C5.51779 13.3868 5.51317 13.4016 5.50807 13.4163C5.4911 13.4656 5.47457 13.515 5.45894 13.5647C5.4518 13.5875 5.4452 13.6105 5.43832 13.6333C5.42571 13.6754 5.4133 13.7176 5.40165 13.76C5.39472 13.7852 5.38812 13.8105 5.38152 13.8359C5.37088 13.8766 5.36068 13.9174 5.35102 13.9583C5.34484 13.9843 5.33883 14.0102 5.33308 14.0362C5.32385 14.0777 5.3152 14.1194 5.30688 14.1611C5.30189 14.1862 5.29673 14.2112 5.29206 14.2364C5.28363 14.2818 5.27606 14.3275 5.2687 14.3732C5.26527 14.3946 5.26146 14.416 5.25823 14.4375C5.24825 14.5046 5.23917 14.5719 5.23155 14.6395C5.23144 14.6403 5.23139 14.6411 5.23133 14.6419C5.22441 14.7034 5.21845 14.765 5.21345 14.8268H2.07387V13.4804C2.07387 11.641 3.13132 9.98962 4.78798 9.20472C5.3915 9.52194 6.07755 9.70252 6.80537 9.70252C7.01585 9.70252 7.22697 9.68695 7.43648 9.65612C7.46913 9.70268 7.50231 9.74875 7.53667 9.79396C7.54827 9.80915 7.5603 9.82397 7.57211 9.83901C7.60605 9.88239 7.64046 9.92529 7.67601 9.96733C7.69056 9.98457 7.70549 10.0014 7.72031 10.0185C7.7536 10.0567 7.78742 10.0944 7.822 10.1314C7.84015 10.1509 7.85862 10.1701 7.87709 10.1892C7.90872 10.2218 7.94077 10.254 7.97337 10.2856C7.98561 10.2974 7.99715 10.31 8.0095 10.3218C7.96284 10.35 7.91661 10.3788 7.87081 10.4083C7.86335 10.4131 7.85604 10.4181 7.84863 10.423C7.80283 10.4527 7.75752 10.4831 7.71263 10.5141C7.69711 10.5248 7.68165 10.5357 7.66618 10.5465C7.62618 10.5747 7.58661 10.6034 7.54736 10.6325C7.53496 10.6418 7.52239 10.6508 7.5101 10.6601C7.46016 10.6979 7.41082 10.7363 7.36212 10.7756C7.35148 10.7842 7.34107 10.7931 7.33044 10.8018C7.29167 10.8335 7.25328 10.8658 7.21537 10.8985C7.20066 10.9112 7.18605 10.924 7.17145 10.9368C7.13349 10.9703 7.09601 11.0042 7.05891 11.0386C7.04924 11.0476 7.03936 11.0564 7.02975 11.0655C6.98422 11.1083 6.93939 11.152 6.8952 11.1964C6.8837 11.2079 6.87248 11.2197 6.8611 11.2313C6.82727 11.2658 6.79382 11.3007 6.7608 11.3361C6.7477 11.3502 6.7346 11.3642 6.7216 11.3785C6.68445 11.4191 6.64783 11.4602 6.6118 11.5019C6.60616 11.5085 6.60031 11.5148 6.59467 11.5214C6.5536 11.5693 6.51343 11.6182 6.47381 11.6675C6.46275 11.6813 6.45195 11.6953 6.44105 11.7092C6.41125 11.747 6.38188 11.7852 6.353 11.8238C6.34183 11.8388 6.33061 11.8536 6.3196 11.8686C6.2818 11.9202 6.24448 11.9721 6.20824 12.025C6.16931 12.0818 6.13162 12.1394 6.09489 12.1973ZM6.26848 16.6393V15.9007V15.2929C6.26848 15.2333 6.26961 15.1739 6.27181 15.1147C6.27251 15.0952 6.27407 15.0759 6.27503 15.0564C6.27697 15.0169 6.27879 14.9773 6.28169 14.938C6.28346 14.9141 6.28615 14.8904 6.2883 14.8666C6.29141 14.8319 6.2942 14.7971 6.29807 14.7627C6.30091 14.7374 6.30462 14.7124 6.30784 14.6872C6.31203 14.6544 6.31595 14.6215 6.32078 14.5889C6.3247 14.5629 6.32942 14.5371 6.33372 14.5112C6.33898 14.4798 6.34387 14.4482 6.34977 14.4169C6.35477 14.3904 6.36057 14.3642 6.36599 14.3378C6.37222 14.3075 6.37818 14.277 6.385 14.2468C6.39101 14.2201 6.39788 14.1938 6.40433 14.1673C6.41158 14.1377 6.4185 14.108 6.42629 14.0787C6.43338 14.052 6.44121 14.0256 6.44873 13.9991C6.45689 13.9703 6.46484 13.9414 6.47354 13.9127C6.48165 13.8861 6.49056 13.8597 6.4991 13.8332C6.50822 13.8051 6.51708 13.777 6.5267 13.7491C6.53582 13.7228 6.54565 13.6966 6.55521 13.6705C6.5653 13.6429 6.57518 13.6152 6.58576 13.5878C6.59585 13.5618 6.60659 13.536 6.61706 13.5102C6.62807 13.4831 6.63892 13.456 6.65041 13.4292C6.66152 13.4034 6.67323 13.3778 6.68477 13.3522C6.69664 13.3259 6.70839 13.2994 6.72074 13.2733C6.73283 13.2478 6.7455 13.2226 6.75801 13.1973C6.77079 13.1716 6.78341 13.1457 6.79661 13.1202C6.80966 13.0951 6.82325 13.0703 6.83672 13.0454C6.85036 13.0203 6.86384 12.9951 6.87791 12.9702C6.89187 12.9455 6.90636 12.9211 6.9207 12.8967C6.9352 12.8721 6.94959 12.8475 6.96457 12.8231C6.97944 12.7989 6.9948 12.775 7.0101 12.7511C7.02546 12.7271 7.04071 12.7031 7.05649 12.6793C7.07228 12.6556 7.08849 12.6322 7.10471 12.6088C7.12087 12.5854 7.13698 12.5621 7.15352 12.539C7.17016 12.5158 7.18729 12.4929 7.20442 12.47C7.22138 12.4473 7.2383 12.4246 7.25564 12.4022C7.27315 12.3796 7.29108 12.3573 7.30901 12.335C7.32679 12.3128 7.34461 12.2908 7.36276 12.269C7.38107 12.2471 7.39976 12.2254 7.41844 12.2038C7.43707 12.1823 7.45576 12.1608 7.47482 12.1395C7.49388 12.1183 7.51337 12.0973 7.53281 12.0764C7.55225 12.0555 7.57168 12.0347 7.5915 12.0142C7.61136 11.9936 7.6316 11.9733 7.6519 11.953C7.67214 11.9328 7.69249 11.9127 7.71311 11.8927C7.73368 11.8729 7.75456 11.8534 7.77556 11.8339C7.79661 11.8143 7.81776 11.7949 7.83918 11.7756C7.86055 11.7565 7.88214 11.7377 7.90389 11.7189C7.92569 11.7001 7.94765 11.6813 7.96982 11.6629C7.99189 11.6445 8.01417 11.6264 8.03662 11.6084C8.05922 11.5903 8.08199 11.5723 8.10497 11.5545C8.12768 11.537 8.15061 11.5197 8.17364 11.5025C8.19705 11.4851 8.22062 11.4679 8.24446 11.4508C8.26777 11.4341 8.29129 11.4177 8.31496 11.4014C8.33923 11.3847 8.36361 11.3682 8.3882 11.3519C8.4121 11.3361 8.43621 11.3205 8.46042 11.3051C8.4855 11.2892 8.51073 11.2734 8.53613 11.258C8.56061 11.243 8.58526 11.2283 8.61007 11.2138C8.63584 11.1987 8.66183 11.1838 8.68798 11.1692C8.71305 11.1551 8.73829 11.1412 8.76368 11.1275C8.79026 11.1133 8.81705 11.0993 8.84401 11.0854C8.86957 11.0722 8.89523 11.0593 8.92111 11.0466C8.94146 11.0366 8.96203 11.0269 8.98259 11.0172C9.58606 11.3344 10.2722 11.5149 11 11.5149C11.7278 11.5149 12.4139 11.3344 13.0174 11.0172C13.0378 11.0269 13.0582 11.0365 13.0784 11.0464C13.1046 11.0592 13.1305 11.0724 13.1564 11.0856C13.183 11.0993 13.2095 11.1132 13.2358 11.1273C13.2615 11.1411 13.287 11.1551 13.3123 11.1694C13.3382 11.1839 13.3638 11.1985 13.3893 11.2135C13.4145 11.2282 13.4394 11.2432 13.4642 11.2583C13.4893 11.2736 13.5142 11.2891 13.5389 11.3048C13.5635 11.3204 13.5879 11.3362 13.6121 11.3523C13.6364 11.3683 13.6605 11.3846 13.6844 11.4011C13.7083 11.4176 13.7321 11.4342 13.7557 11.4511C13.7793 11.4679 13.8026 11.485 13.8258 11.5023C13.8491 11.5196 13.8722 11.537 13.8951 11.5547C13.9179 11.5723 13.9405 11.5902 13.9629 11.6082C13.9855 11.6263 14.0079 11.6445 14.0301 11.6629C14.0522 11.6813 14.074 11.6999 14.0957 11.7187C14.1175 11.7375 14.1393 11.7565 14.1608 11.7757C14.182 11.7948 14.203 11.8141 14.2239 11.8335C14.2451 11.8532 14.2662 11.8729 14.2869 11.893C14.3074 11.9127 14.3275 11.9326 14.3476 11.9527C14.368 11.9731 14.3884 11.9935 14.4084 12.0142C14.428 12.0346 14.4474 12.0553 14.4667 12.076C14.4864 12.0971 14.506 12.1183 14.5252 12.1397C14.5441 12.1607 14.5626 12.182 14.5811 12.2034C14.5999 12.2252 14.6188 12.247 14.6372 12.2691C14.6553 12.2907 14.6729 12.3127 14.6906 12.3346C14.7087 12.3571 14.7267 12.3795 14.7443 12.4022C14.7616 12.4245 14.7784 12.4471 14.7953 12.4697C14.8124 12.4927 14.8296 12.5157 14.8464 12.539C14.8629 12.562 14.8789 12.5853 14.895 12.6085C14.9112 12.632 14.9276 12.6556 14.9434 12.6794C14.9591 12.703 14.9742 12.7268 14.9895 12.7507C15.0049 12.7748 15.0203 12.7988 15.0353 12.8232C15.0501 12.8473 15.0644 12.8718 15.0788 12.8962C15.0933 12.9208 15.1079 12.9453 15.1219 12.9702C15.1359 12.995 15.1494 13.0201 15.163 13.0451C15.1765 13.0701 15.1901 13.095 15.2032 13.1202C15.2164 13.1456 15.2289 13.1715 15.2417 13.1972C15.2542 13.2225 15.267 13.2477 15.279 13.2733C15.2914 13.2994 15.3031 13.3257 15.3149 13.352C15.3265 13.3777 15.3383 13.4033 15.3494 13.4292C15.3608 13.4558 15.3715 13.4827 15.3825 13.5096C15.3931 13.5357 15.4039 13.5616 15.4141 13.588C15.4246 13.6152 15.4344 13.6427 15.4445 13.6702C15.4541 13.6965 15.4639 13.7226 15.473 13.7491C15.4827 13.7771 15.4916 13.8054 15.5007 13.8336C15.5093 13.8599 15.5181 13.8862 15.5262 13.9127C15.5349 13.9414 15.5428 13.9703 15.5511 13.9991C15.5586 14.0256 15.5664 14.052 15.5735 14.0787C15.5813 14.108 15.5882 14.1377 15.5955 14.1673C15.602 14.1937 15.6088 14.2201 15.6148 14.2468C15.6216 14.277 15.6275 14.3074 15.6338 14.3377C15.6392 14.3641 15.645 14.3904 15.65 14.4169C15.6559 14.4479 15.6607 14.4792 15.666 14.5105C15.6703 14.5366 15.6751 14.5626 15.6791 14.5889C15.6839 14.6213 15.6878 14.6539 15.6919 14.6865C15.6952 14.7119 15.699 14.7371 15.7018 14.7626C15.7057 14.7971 15.7085 14.8318 15.7116 14.8665C15.7137 14.8903 15.7164 14.914 15.7182 14.9379C15.7212 14.9773 15.7229 15.0169 15.7249 15.0565C15.7258 15.0759 15.7274 15.0952 15.7281 15.1146C15.7303 15.1739 15.7314 15.2332 15.7314 15.2928V15.9006V16.6393H6.26848ZM16.7868 14.8268C16.7762 14.696 16.7611 14.566 16.7419 14.4368C16.7388 14.4163 16.7352 14.396 16.7319 14.3756C16.7244 14.3289 16.7166 14.2822 16.708 14.2357C16.7034 14.2112 16.6984 14.1869 16.6935 14.1624C16.6851 14.12 16.6763 14.0776 16.6669 14.0354C16.6612 14.0099 16.6553 13.9845 16.6493 13.9591C16.6395 13.9177 16.6292 13.8764 16.6184 13.8352C16.6119 13.8102 16.6054 13.7853 16.5986 13.7604C16.5868 13.7176 16.5742 13.6749 16.5615 13.6324C16.5547 13.6099 16.5483 13.5874 16.5412 13.565C16.5254 13.5146 16.5086 13.4645 16.4914 13.4144C16.4866 13.4005 16.4822 13.3863 16.4772 13.3724C16.4546 13.3082 16.4308 13.2444 16.4058 13.181C16.4004 13.1674 16.3946 13.154 16.3891 13.1404C16.3693 13.0912 16.349 13.0421 16.3278 12.9933C16.3184 12.9717 16.3085 12.9503 16.2988 12.9288C16.2805 12.8882 16.2621 12.8477 16.2428 12.8076C16.2316 12.7841 16.22 12.7607 16.2085 12.7373C16.1896 12.6992 16.1704 12.6613 16.1507 12.6235C16.1383 12.5999 16.1259 12.5764 16.1132 12.5529C16.0928 12.5152 16.0719 12.4777 16.0506 12.4403C16.0378 12.4179 16.0252 12.3954 16.0122 12.3731C15.9885 12.3328 15.9641 12.2929 15.9394 12.2531C15.9279 12.2345 15.9168 12.2158 15.9051 12.1973C15.8683 12.1394 15.8306 12.0819 15.7916 12.025C15.7553 11.9721 15.718 11.9201 15.6802 11.8686C15.6692 11.8536 15.6581 11.8389 15.647 11.8241C15.618 11.7852 15.5885 11.7469 15.5586 11.7089C15.5478 11.6952 15.5371 11.6813 15.5261 11.6678C15.4865 11.6183 15.4461 11.5693 15.405 11.5212C15.3996 11.515 15.3941 11.5089 15.3887 11.5027C15.3524 11.4607 15.3154 11.4192 15.278 11.3783C15.2651 11.3642 15.2522 11.3503 15.2392 11.3364C15.206 11.3008 15.1724 11.2656 15.1383 11.2309C15.1271 11.2195 15.1161 11.2079 15.1048 11.1966C15.0605 11.1521 15.0155 11.1083 14.9698 11.0654C14.9604 11.0565 14.9508 11.0479 14.9413 11.0391C14.904 11.0045 14.8663 10.9704 14.8282 10.9368C14.8137 10.924 14.7991 10.9113 14.7845 10.8987C14.7465 10.8658 14.7081 10.8336 14.6692 10.8018C14.6587 10.7931 14.6483 10.7843 14.6377 10.7757C14.589 10.7364 14.5397 10.6979 14.4898 10.6603C14.4773 10.6509 14.4647 10.6417 14.4522 10.6324C14.4131 10.6034 14.3737 10.5749 14.3339 10.5469C14.3182 10.5358 14.3026 10.5249 14.2869 10.514C14.2425 10.4834 14.1976 10.4533 14.1523 10.4239C14.1444 10.4187 14.1366 10.4134 14.1287 10.4083C14.0829 10.3789 14.0368 10.3501 13.9902 10.3219C14.0023 10.3105 14.0135 10.2983 14.0254 10.2867C14.0587 10.2545 14.0914 10.2217 14.1236 10.1884C14.1416 10.1699 14.1595 10.1512 14.1771 10.1323C14.2123 10.0947 14.2465 10.0564 14.2803 10.0176C14.2947 10.0011 14.3092 9.98473 14.3233 9.96798C14.3593 9.92535 14.3943 9.8818 14.4287 9.83772C14.44 9.82333 14.4516 9.80915 14.4626 9.7946C14.4972 9.74923 14.5305 9.70295 14.5633 9.65623C14.7728 9.687 14.9839 9.70257 15.1944 9.70257C15.9222 9.70257 16.6083 9.52205 17.2118 9.20478C18.8685 9.98967 19.9259 11.641 19.9259 13.4805V14.8268H16.7868Z" stroke="#1B9E84" stroke-width="0.4" mask="url(#path-1-outside-1_1176_8390)"/>
</svg>
