<svg width="24" height="24" viewBox="0 0 24 24" fill="none" xmlns="http://www.w3.org/2000/svg">
<path d="M12.0027 16.2C10.8576 16.2 9.75931 15.7575 8.94956 14.9698C8.13981 14.1822 7.6849 13.1139 7.6849 12C7.6849 10.8861 8.13981 9.81781 8.94956 9.03015C9.75931 8.2425 10.8576 7.8 12.0027 7.8C13.1479 7.8 14.2461 8.2425 15.0559 9.03015C15.8656 9.81781 16.3205 10.8861 16.3205 12C16.3205 13.1139 15.8656 14.1822 15.0559 14.9698C14.2461 15.7575 13.1479 16.2 12.0027 16.2ZM21.1688 13.164C21.2182 12.78 21.2552 12.396 21.2552 12C21.2552 11.604 21.2182 11.208 21.1688 10.8L23.7719 8.844C24.0063 8.664 24.068 8.34 23.9199 8.076L21.4526 3.924C21.3045 3.66 20.9715 3.552 20.7001 3.66L17.6282 4.86C16.9867 4.392 16.3205 3.984 15.5433 3.684L15.0869 0.504002C15.0618 0.362663 14.9861 0.234515 14.8732 0.142264C14.7603 0.0500134 14.6175 -0.000383729 14.4701 2.20016e-06H9.5354C9.22698 2.20016e-06 8.96791 0.216002 8.91856 0.504002L8.46211 3.684C7.6849 3.984 7.01872 4.392 6.37722 4.86L3.30539 3.66C3.03399 3.552 2.7009 3.66 2.55286 3.924L0.0855318 8.076C-0.0748444 8.34 -0.00082446 8.664 0.233572 8.844L2.8366 10.8C2.78726 11.208 2.75025 11.604 2.75025 12C2.75025 12.396 2.78726 12.78 2.8366 13.164L0.233572 15.156C-0.00082446 15.336 -0.0748444 15.66 0.0855318 15.924L2.55286 20.076C2.7009 20.34 3.03399 20.436 3.30539 20.34L6.37722 19.128C7.01872 19.608 7.6849 20.016 8.46211 20.316L8.91856 23.496C8.96791 23.784 9.22698 24 9.5354 24H14.4701C14.7785 24 15.0375 23.784 15.0869 23.496L15.5433 20.316C16.3205 20.004 16.9867 19.608 17.6282 19.128L20.7001 20.34C20.9715 20.436 21.3045 20.34 21.4526 20.076L23.9199 15.924C24.068 15.66 24.0063 15.336 23.7719 15.156L21.1688 13.164Z" fill="#1B1B21"/>
</svg>
