<svg width="40" height="41" viewBox="0 0 40 41" fill="none" xmlns="http://www.w3.org/2000/svg">
<rect y="0.5" width="40" height="40" rx="20" fill="#5856D6"/>
<path opacity="0.4" d="M25.3917 24.525L25.7167 27.1583C25.8 27.8499 25.0584 28.3333 24.4667 27.9749L20.975 25.8999C20.5917 25.8999 20.2167 25.875 19.85 25.825C20.4667 25.1 20.8334 24.1833 20.8334 23.1916C20.8334 20.8249 18.7834 18.9083 16.25 18.9083C15.2834 18.9083 14.3917 19.1833 13.65 19.6666C13.625 19.4583 13.6167 19.25 13.6167 19.0333C13.6167 15.2416 16.9084 12.1666 20.975 12.1666C25.0417 12.1666 28.3334 15.2416 28.3334 19.0333C28.3334 21.2833 27.175 23.275 25.3917 24.525Z" fill="white"/>
<path d="M20.8332 23.1916C20.8332 24.1833 20.4665 25.1 19.8498 25.825C19.0248 26.825 17.7165 27.4666 16.2498 27.4666L14.0748 28.7583C13.7082 28.9833 13.2415 28.675 13.2915 28.25L13.4998 26.6083C12.3832 25.8333 11.6665 24.5916 11.6665 23.1916C11.6665 21.725 12.4498 20.4333 13.6498 19.6666C14.3915 19.1833 15.2832 18.9083 16.2498 18.9083C18.7832 18.9083 20.8332 20.825 20.8332 23.1916Z" fill="white"/>
</svg>
