<svg width="48" height="48" viewBox="0 0 48 48" fill="none" xmlns="http://www.w3.org/2000/svg">
<rect width="48" height="48" rx="24" fill="#222222"/>
<path opacity="0.4" d="M30.4698 28.83L30.8598 31.99C30.9598 32.82 30.0698 33.4 29.3598 32.97L25.1698 30.48C24.7098 30.48 24.2599 30.45 23.8199 30.39C24.5599 29.52 24.9998 28.42 24.9998 27.23C24.9998 24.39 22.5398 22.09 19.4998 22.09C18.3398 22.09 17.2699 22.42 16.3799 23C16.3499 22.75 16.3398 22.5 16.3398 22.24C16.3398 17.69 20.2898 14 25.1698 14C30.0498 14 33.9998 17.69 33.9998 22.24C33.9998 24.94 32.6098 27.33 30.4698 28.83Z" fill="white"/>
<path d="M25 27.23C25 28.42 24.56 29.5201 23.82 30.3901C22.83 31.5901 21.26 32.36 19.5 32.36L16.89 33.91C16.45 34.18 15.89 33.81 15.95 33.3L16.2 31.3301C14.86 30.4001 14 28.91 14 27.23C14 25.47 14.94 23.9201 16.38 23.0001C17.27 22.4201 18.34 22.0901 19.5 22.0901C22.54 22.0901 25 24.39 25 27.23Z" fill="white"/>
</svg>
