<svg width="159" height="39" viewBox="0 0 159 39" fill="none" xmlns="http://www.w3.org/2000/svg">
<path d="M19.2994 30H16.1314V20.656C16.1314 16.848 18.3074 14 22.4034 14C23.3954 14 24.4194 14.192 25.2194 14.576V17.712C24.4514 17.264 23.5554 17.04 22.6914 17.04C20.5794 17.04 19.2994 18.48 19.2994 20.784V30ZM29.2769 11.216C28.1249 11.216 27.1969 10.288 27.1969 9.136C27.1969 7.984 28.1249 7.024 29.2769 7.024C30.4289 7.024 31.3249 7.984 31.3249 9.136C31.3249 10.288 30.4289 11.216 29.2769 11.216ZM27.7089 14.32H30.8769V30H27.7089V14.32ZM39.2056 37.2H36.0376V22.128C36.0376 17.456 39.6536 13.936 44.3896 13.936C49.1256 13.936 52.7096 17.648 52.7096 22.128C52.7096 26.864 49.2856 30.384 44.5176 30.384C42.4056 30.384 40.4856 29.456 39.2056 28.048V37.2ZM44.3896 27.408C47.3016 27.408 49.5416 25.008 49.5416 22.16C49.5416 19.28 47.3016 16.944 44.3896 16.944C41.4456 16.944 39.2056 19.28 39.2056 22.16C39.2056 25.008 41.4456 27.408 44.3896 27.408ZM63.6156 30.352C58.8476 30.352 55.2956 26.896 55.2956 22.064C55.2956 17.552 58.5276 13.872 63.2316 13.872C67.9676 13.872 70.9116 17.296 70.9116 21.68V22.96H58.3676C58.7196 25.648 60.7676 27.536 63.5836 27.536C65.5036 27.536 67.2316 26.704 68.1596 24.976L70.5916 26.224C69.2156 28.912 66.6876 30.352 63.6156 30.352ZM58.4956 20.912H67.7436C67.6156 18.416 65.7916 16.72 63.1996 16.72C60.5436 16.72 58.8156 18.576 58.4956 20.912ZM80.3259 30.352C77.4139 30.352 75.1739 29.2 73.9579 26.864L76.3899 25.52C77.1899 27.088 78.4699 27.664 80.1979 27.664C81.9899 27.664 83.3659 26.928 83.3659 25.552C83.3659 22.256 74.3739 24.752 74.3739 18.768C74.3739 16.016 76.8059 14 80.2299 14C83.1419 14 85.1259 15.344 86.1179 17.168L83.6859 18.544C83.0139 17.168 81.7339 16.688 80.2939 16.688C78.8219 16.688 77.5419 17.456 77.5419 18.704C77.5419 21.904 86.5339 19.568 86.5339 25.488C86.5339 28.464 83.6539 30.352 80.3259 30.352ZM97.6781 30.352C92.9101 30.352 89.3581 26.896 89.3581 22.064C89.3581 17.552 92.5901 13.872 97.2941 13.872C102.03 13.872 104.974 17.296 104.974 21.68V22.96H92.4301C92.7821 25.648 94.8301 27.536 97.6461 27.536C99.5661 27.536 101.294 26.704 102.222 24.976L104.654 26.224C103.278 28.912 100.75 30.352 97.6781 30.352ZM92.5581 20.912H101.806C101.678 18.416 99.8541 16.72 97.2621 16.72C94.6061 16.72 92.8781 18.576 92.5581 20.912ZM116.084 30.352C111.316 30.352 107.764 26.896 107.764 22.064C107.764 17.552 110.996 13.872 115.7 13.872C120.436 13.872 123.38 17.296 123.38 21.68V22.96H110.836C111.188 25.648 113.236 27.536 116.052 27.536C117.972 27.536 119.7 26.704 120.628 24.976L123.06 26.224C121.684 28.912 119.156 30.352 116.084 30.352ZM110.964 20.912H120.212C120.084 18.416 118.26 16.72 115.668 16.72C113.012 16.72 111.284 18.576 110.964 20.912ZM134.523 30.384C129.755 30.384 126.171 26.704 126.171 22.192C126.171 17.424 129.627 13.936 134.363 13.936C136.475 13.936 138.395 14.864 139.675 16.272L139.707 7.12H142.875V22.192C142.875 26.832 139.259 30.384 134.523 30.384ZM134.523 27.408C137.467 27.408 139.707 25.04 139.707 22.16C139.707 19.312 137.467 16.944 134.523 16.944C131.611 16.944 129.339 19.312 129.339 22.16C129.339 25.04 131.611 27.408 134.523 27.408Z" fill="black"/>
</svg>
