<svg viewBox="0 0 842 275" fill="none" xmlns="http://www.w3.org/2000/svg">
<path d="M202.875 168.43H194.213V142.879C194.213 132.467 200.163 124.679 211.363 124.679C214.075 124.679 216.875 125.204 219.063 126.254V134.829C216.963 133.604 214.513 132.992 212.15 132.992C206.375 132.992 202.875 136.929 202.875 143.229V168.43ZM231.908 117.066C228.758 117.066 226.22 114.529 226.22 111.379C226.22 108.229 228.758 105.604 231.908 105.604C235.058 105.604 237.508 108.229 237.508 111.379C237.508 114.529 235.058 117.066 231.908 117.066ZM227.62 125.554H236.283V168.43H227.62V125.554ZM259.057 188.117H250.395V146.904C250.395 134.129 260.282 124.504 273.232 124.504C286.182 124.504 295.983 134.654 295.983 146.904C295.983 159.855 286.62 169.48 273.582 169.48C267.807 169.48 262.557 166.942 259.057 163.092V188.117ZM273.232 161.342C281.195 161.342 287.32 154.78 287.32 146.992C287.32 139.117 281.195 132.729 273.232 132.729C265.182 132.729 259.057 139.117 259.057 146.992C259.057 154.78 265.182 161.342 273.232 161.342ZM325.804 169.392C312.766 169.392 303.054 159.942 303.054 146.729C303.054 134.392 311.891 124.329 324.754 124.329C337.704 124.329 345.754 133.692 345.754 145.679V149.179H311.454C312.416 156.53 318.017 161.692 325.717 161.692C330.967 161.692 335.692 159.417 338.229 154.692L344.879 158.105C341.117 165.455 334.204 169.392 325.804 169.392ZM311.804 143.579H337.092C336.742 136.754 331.754 132.117 324.667 132.117C317.404 132.117 312.679 137.192 311.804 143.579ZM371.497 169.392C363.534 169.392 357.409 166.242 354.084 159.855L360.734 156.18C362.922 160.467 366.422 162.042 371.147 162.042C376.047 162.042 379.809 160.03 379.809 156.267C379.809 147.254 355.222 154.079 355.222 137.717C355.222 130.192 361.872 124.679 371.234 124.679C379.197 124.679 384.622 128.354 387.335 133.342L380.684 137.104C378.847 133.342 375.347 132.029 371.409 132.029C367.384 132.029 363.884 134.129 363.884 137.542C363.884 146.292 388.472 139.904 388.472 156.092C388.472 164.23 380.597 169.392 371.497 169.392ZM418.945 169.392C405.907 169.392 396.195 159.942 396.195 146.729C396.195 134.392 405.032 124.329 417.895 124.329C430.845 124.329 438.895 133.692 438.895 145.679V149.179H404.595C405.557 156.53 411.157 161.692 418.858 161.692C424.108 161.692 428.833 159.417 431.37 154.692L438.02 158.105C434.258 165.455 427.345 169.392 418.945 169.392ZM404.945 143.579H430.233C429.883 136.754 424.895 132.117 417.808 132.117C410.545 132.117 405.82 137.192 404.945 143.579ZM469.275 169.392C456.238 169.392 446.525 159.942 446.525 146.729C446.525 134.392 455.363 124.329 468.225 124.329C481.176 124.329 489.226 133.692 489.226 145.679V149.179H454.925C455.888 156.53 461.488 161.692 469.188 161.692C474.438 161.692 479.163 159.417 481.701 154.692L488.351 158.105C484.588 165.455 477.675 169.392 469.275 169.392ZM455.275 143.579H480.563C480.213 136.754 475.225 132.117 468.138 132.117C460.875 132.117 456.15 137.192 455.275 143.579ZM519.693 169.48C506.655 169.48 496.855 159.417 496.855 147.079C496.855 134.042 506.305 124.504 519.256 124.504C525.031 124.504 530.281 127.042 533.781 130.892L533.868 105.866H542.531V147.079C542.531 159.767 532.643 169.48 519.693 169.48ZM519.693 161.342C527.743 161.342 533.868 154.867 533.868 146.992C533.868 139.204 527.743 132.729 519.693 132.729C511.731 132.729 505.518 139.204 505.518 146.992C505.518 154.867 511.731 161.342 519.693 161.342Z" fill="black"/>
<path d="M563.675 88.1606C564.485 87.8006 565.105 87.2806 565.535 86.6106C565.965 85.9406 566.185 85.1306 566.185 84.1806C566.185 82.7506 565.705 81.6406 564.735 80.8406C563.765 80.0406 562.445 79.6406 560.755 79.6406H555.675V92.6606H557.535V88.7006H560.755C561.045 88.7006 561.295 88.6506 561.555 88.6306L564.375 92.6606H566.405L563.295 88.2706C563.415 88.2306 563.555 88.2106 563.675 88.1606ZM560.695 87.1206H557.535V81.2606H560.695C561.885 81.2606 562.785 81.5106 563.405 82.0206C564.015 82.5306 564.325 83.2506 564.325 84.1806C564.325 85.1106 564.015 85.8306 563.405 86.3506C562.785 86.8606 561.885 87.1206 560.695 87.1206Z" fill="black"/>
<path d="M560.485 73C552.695 73 546.365 79.34 546.365 87.12C546.365 94.91 552.705 101.24 560.485 101.24C568.275 101.24 574.605 94.9 574.605 87.12C574.605 79.33 568.275 73 560.485 73ZM560.485 98.77C554.065 98.77 548.845 93.55 548.845 87.13C548.845 80.71 554.065 75.49 560.485 75.49C566.905 75.49 572.125 80.71 572.125 87.13C572.125 93.54 566.905 98.77 560.485 98.77Z" fill="black"/>
</svg>
