<svg width="221" height="39" viewBox="0 0 221 39" fill="none" xmlns="http://www.w3.org/2000/svg">
<g clip-path="url(#clip0_835_9)">
<path d="M5.04027 12.7601V9.64012H0.280273V31.0001H5.28027V20.6401C5.28027 16.2801 7.68027 14.0401 11.4803 14.0401C11.8403 14.0401 12.2003 14.0801 12.6403 14.1601V9.40012C9.08027 9.40012 6.48027 10.5201 5.04027 12.7601ZM19.4023 6.12012C21.2823 6.12012 22.6023 4.76012 22.6023 3.00012C22.6023 1.36012 21.2423 0.120117 19.4023 0.120117C17.5623 0.120117 16.2023 1.44012 16.2023 3.12012C16.2023 4.80012 17.5623 6.12012 19.4023 6.12012ZM16.8823 31.0001H21.8823V9.64012H16.8823V31.0001ZM40.2843 9.40012C37.3643 9.40012 34.8843 10.4001 33.2043 12.4401V9.64012H28.4443V38.7601H33.4443V28.4001C35.1643 30.3601 37.5643 31.2801 40.2843 31.2801C46.5243 31.2801 51.1243 26.9601 51.1243 20.3201C51.1243 13.7201 46.5243 9.40012 40.2843 9.40012ZM39.7243 27.0001C36.1243 27.0001 33.3643 24.4001 33.3643 20.3201C33.3643 16.2401 36.1243 13.6401 39.7243 13.6401C43.3243 13.6401 46.0443 16.2401 46.0443 20.3201C46.0443 24.4001 43.3243 27.0001 39.7243 27.0001ZM75.9463 20.4401C75.9463 13.7601 71.3863 9.40012 65.1463 9.40012C58.7863 9.40012 54.1063 13.9601 54.1063 20.3201C54.1063 26.6801 58.7463 31.2801 65.9063 31.2801C69.5863 31.2801 72.5863 30.0801 74.5063 27.8001L71.8263 24.7201C70.3063 26.2801 68.4263 27.0401 66.0263 27.0401C62.3063 27.0401 59.7063 25.0401 59.1063 21.9201H75.8663C75.9063 21.4401 75.9463 20.8401 75.9463 20.4401ZM65.1463 13.4001C68.4263 13.4001 70.7863 15.5201 71.1863 18.6001H59.0663C59.5463 15.4801 61.9063 13.4001 65.1463 13.4001ZM87.3493 31.2801C93.3493 31.2801 97.0293 28.6801 97.0293 24.6801C97.0293 16.3201 83.8293 20.1601 83.8293 15.8401C83.8293 14.4401 85.2693 13.4401 88.3093 13.4401C90.3493 13.4401 92.3893 13.8401 94.4293 15.0401L96.3493 11.2401C94.4293 10.0801 91.1893 9.40012 88.3493 9.40012C82.5893 9.40012 78.9493 12.0401 78.9493 16.0801C78.9493 24.6001 92.1493 20.7601 92.1493 24.8401C92.1493 26.3201 90.8293 27.2001 87.6693 27.2001C84.9893 27.2001 82.1093 26.3201 80.2293 25.0801L78.3093 28.8801C80.2293 30.2401 83.7893 31.2801 87.3493 31.2801ZM121.415 20.4401C121.415 13.7601 116.855 9.40012 110.615 9.40012C104.255 9.40012 99.5753 13.9601 99.5753 20.3201C99.5753 26.6801 104.215 31.2801 111.375 31.2801C115.055 31.2801 118.055 30.0801 119.975 27.8001L117.295 24.7201C115.775 26.2801 113.895 27.0401 111.495 27.0401C107.775 27.0401 105.175 25.0401 104.575 21.9201H121.335C121.375 21.4401 121.415 20.8401 121.415 20.4401ZM110.615 13.4001C113.895 13.4001 116.255 15.5201 116.655 18.6001H104.535C105.015 15.4801 107.375 13.4001 110.615 13.4001ZM146.298 20.4401C146.298 13.7601 141.738 9.40012 135.498 9.40012C129.138 9.40012 124.458 13.9601 124.458 20.3201C124.458 26.6801 129.098 31.2801 136.258 31.2801C139.938 31.2801 142.938 30.0801 144.858 27.8001L142.178 24.7201C140.658 26.2801 138.778 27.0401 136.378 27.0401C132.658 27.0401 130.058 25.0401 129.458 21.9201H146.218C146.258 21.4401 146.298 20.8401 146.298 20.4401ZM135.498 13.4001C138.778 13.4001 141.138 15.5201 141.538 18.6001H129.418C129.898 15.4801 132.258 13.4001 135.498 13.4001ZM167.02 1.32012V12.2801C165.34 10.3201 162.9 9.40012 160.14 9.40012C153.94 9.40012 149.34 13.6801 149.34 20.3201C149.34 26.9601 153.94 31.2801 160.14 31.2801C163.06 31.2801 165.54 30.2801 167.22 28.2401V31.0001H172.02V1.32012H167.02ZM160.74 27.0001C157.14 27.0001 154.38 24.4001 154.38 20.3201C154.38 16.2401 157.14 13.6401 160.74 13.6401C164.34 13.6401 167.1 16.2401 167.1 20.3201C167.1 24.4001 164.34 27.0001 160.74 27.0001Z" fill="#1AA087"/>
<path d="M180.161 31.2801C181.961 31.2801 183.441 29.8801 183.441 27.9601C183.441 25.9601 181.961 24.6401 180.161 24.6401C178.361 24.6401 176.881 25.9601 176.881 27.9601C176.881 29.8801 178.361 31.2801 180.161 31.2801ZM190.847 6.12012C192.727 6.12012 194.047 4.76012 194.047 3.00012C194.047 1.36012 192.687 0.120117 190.847 0.120117C189.007 0.120117 187.647 1.44012 187.647 3.12012C187.647 4.80012 189.007 6.12012 190.847 6.12012ZM188.327 31.0001H193.327V9.64012H188.327V31.0001ZM209.489 31.2801C216.129 31.2801 220.889 26.7201 220.889 20.3201C220.889 13.9201 216.129 9.40012 209.489 9.40012C202.929 9.40012 198.129 13.9201 198.129 20.3201C198.129 26.7201 202.929 31.2801 209.489 31.2801ZM209.489 27.0001C205.889 27.0001 203.169 24.4001 203.169 20.3201C203.169 16.2401 205.889 13.6401 209.489 13.6401C213.129 13.6401 215.849 16.2401 215.849 20.3201C215.849 24.4001 213.129 27.0001 209.489 27.0001Z" fill="#FFAB00"/>
</g>
<defs>
<clipPath id="clip0_835_9">
<rect width="221" height="39" fill="white"/>
</clipPath>
</defs>
</svg>
