<svg width="24" height="25" viewBox="0 0 24 25" fill="none" xmlns="http://www.w3.org/2000/svg">
<path d="M17.3099 11.4265C17.3299 11.6865 17.2399 11.9564 17.0399 12.1564L11.0199 18.1765C9.68986 19.5065 8.34986 19.5065 7.00986 18.1765L2.99986 14.1665C2.31986 13.4765 1.97986 12.7865 1.99986 12.0965H2.06986L17.1899 11.4365L17.3099 11.4265Z" fill="#3D4350"/>
<path opacity="0.4" d="M17.04 10.8165L9.69 3.46642L8.82 2.59642C8.53 2.30642 8.05 2.30642 7.76 2.59642C7.47 2.88642 7.47 3.36642 7.76 3.65642L8.63 4.52641L3 10.1564C2.36 10.7964 2.02 11.4464 2 12.0964H2.07L17.19 11.4364L17.31 11.4264C17.3 11.2064 17.2 10.9765 17.04 10.8165Z" fill="#3D4350"/>
<path d="M16 22.9265H3C2.59 22.9265 2.25 22.5865 2.25 22.1765C2.25 21.7665 2.59 21.4265 3 21.4265H16C16.41 21.4265 16.75 21.7665 16.75 22.1765C16.75 22.5865 16.41 22.9265 16 22.9265Z" fill="#3D4350"/>
<path d="M19.35 14.9565C19.09 14.6765 18.61 14.6765 18.35 14.9565C18.04 15.2965 16.5 17.0364 16.5 18.3464C16.5 19.6464 17.55 20.6965 18.85 20.6965C20.15 20.6965 21.2 19.6464 21.2 18.3464C21.2 17.0364 19.66 15.2965 19.35 14.9565Z" fill="#3D4350"/>
</svg>
