<svg width="24" height="25" viewBox="0 0 24 25" fill="none" xmlns="http://www.w3.org/2000/svg">
<path d="M4.02 6.14647C2.75 7.82647 2 9.91647 2 12.1765C2 17.6965 6.48 22.1765 12 22.1765C17.52 22.1765 22 17.6965 22 12.1765C22 6.65647 17.52 2.17647 12 2.17647" stroke="#757575" stroke-width="1.5" stroke-linecap="round" stroke-linejoin="round"/>
<path d="M5 12.1765C5 16.0465 8.13 19.1765 12 19.1765C15.87 19.1765 19 16.0465 19 12.1765C19 8.30647 15.87 5.17647 12 5.17647" stroke="#757575" stroke-width="1.5" stroke-linecap="round" stroke-linejoin="round"/>
<path d="M12 16.1765C14.21 16.1765 16 14.3865 16 12.1765C16 9.96647 14.21 8.17647 12 8.17647" stroke="#757575" stroke-width="1.5" stroke-linecap="round" stroke-linejoin="round"/>
</svg>
