<svg width="91" height="49" viewBox="0 0 91 49" fill="none" xmlns="http://www.w3.org/2000/svg">
<rect y="4.5" width="40" height="40" rx="20" fill="#34C759"/>
<path opacity="0.4" d="M25.3917 28.525L25.7167 31.1583C25.8 31.8499 25.0584 32.3333 24.4667 31.9749L20.975 29.8999C20.5917 29.8999 20.2167 29.875 19.85 29.825C20.4667 29.1 20.8334 28.1833 20.8334 27.1916C20.8334 24.8249 18.7834 22.9083 16.25 22.9083C15.2834 22.9083 14.3917 23.1833 13.65 23.6666C13.625 23.4583 13.6167 23.25 13.6167 23.0333C13.6167 19.2416 16.9084 16.1666 20.975 16.1666C25.0417 16.1666 28.3334 19.2416 28.3334 23.0333C28.3334 25.2833 27.175 27.275 25.3917 28.525Z" fill="white"/>
<path d="M20.8332 27.1916C20.8332 28.1833 20.4665 29.1 19.8498 29.825C19.0248 30.825 17.7165 31.4666 16.2498 31.4666L14.0748 32.7583C13.7082 32.9833 13.2415 32.675 13.2915 32.25L13.4998 30.6083C12.3832 29.8333 11.6665 28.5916 11.6665 27.1916C11.6665 25.725 12.4498 24.4333 13.6498 23.6666C14.3915 23.1833 15.2832 22.9083 16.2498 22.9083C18.7832 22.9083 20.8332 24.825 20.8332 27.1916Z" fill="white"/>
<path d="M48.9 20.991L48.909 19.551L54.66 14.376C55.14 13.944 55.461 13.536 55.623 13.152C55.791 12.762 55.875 12.363 55.875 11.955C55.875 11.457 55.761 11.007 55.533 10.605C55.305 10.203 54.993 9.885 54.597 9.651C54.207 9.417 53.763 9.3 53.265 9.3C52.749 9.3 52.29 9.423 51.888 9.669C51.486 9.909 51.168 10.23 50.934 10.632C50.706 11.034 50.595 11.472 50.601 11.946H48.963C48.963 11.13 49.152 10.41 49.53 9.786C49.908 9.156 50.421 8.664 51.069 8.31C51.723 7.95 52.464 7.77 53.292 7.77C54.096 7.77 54.816 7.956 55.452 8.328C56.088 8.694 56.589 9.195 56.955 9.831C57.327 10.461 57.513 11.175 57.513 11.973C57.513 12.537 57.441 13.026 57.297 13.44C57.159 13.854 56.943 14.238 56.649 14.592C56.355 14.94 55.986 15.312 55.542 15.708L50.763 20.001L50.556 19.461H57.513V20.991H48.9ZM59.3063 20.991L59.3153 19.551L65.0663 14.376C65.5463 13.944 65.8673 13.536 66.0293 13.152C66.1973 12.762 66.2813 12.363 66.2813 11.955C66.2813 11.457 66.1673 11.007 65.9393 10.605C65.7113 10.203 65.3993 9.885 65.0033 9.651C64.6133 9.417 64.1693 9.3 63.6713 9.3C63.1553 9.3 62.6963 9.423 62.2943 9.669C61.8923 9.909 61.5743 10.23 61.3403 10.632C61.1123 11.034 61.0013 11.472 61.0073 11.946H59.3693C59.3693 11.13 59.5583 10.41 59.9363 9.786C60.3143 9.156 60.8273 8.664 61.4753 8.31C62.1293 7.95 62.8703 7.77 63.6982 7.77C64.5023 7.77 65.2223 7.956 65.8583 8.328C66.4943 8.694 66.9953 9.195 67.3613 9.831C67.7333 10.461 67.9193 11.175 67.9193 11.973C67.9193 12.537 67.8473 13.026 67.7032 13.44C67.5652 13.854 67.3493 14.238 67.0553 14.592C66.7613 14.94 66.3923 15.312 65.9483 15.708L61.1693 20.001L60.9623 19.461H67.9193V20.991H59.3063ZM71.5125 21L70.4325 19.92L82.3305 8.04L83.4105 9.12L71.5125 21ZM80.7105 21.27C80.1165 21.27 79.5735 21.126 79.0815 20.838C78.5955 20.544 78.2055 20.154 77.9115 19.668C77.6175 19.176 77.4705 18.63 77.4705 18.03C77.4705 17.442 77.6205 16.902 77.9205 16.41C78.2205 15.918 78.6165 15.525 79.1085 15.231C79.6005 14.937 80.1345 14.79 80.7105 14.79C81.3045 14.79 81.8475 14.937 82.3395 15.231C82.8315 15.519 83.2215 15.909 83.5095 16.401C83.8035 16.887 83.9505 17.43 83.9505 18.03C83.9505 18.63 83.8035 19.176 83.5095 19.668C83.2215 20.154 82.8315 20.544 82.3395 20.838C81.8475 21.126 81.3045 21.27 80.7105 21.27ZM80.7105 19.857C81.0405 19.857 81.3435 19.773 81.6195 19.605C81.9015 19.437 82.1235 19.215 82.2855 18.939C82.4535 18.663 82.5375 18.36 82.5375 18.03C82.5375 17.7 82.4535 17.397 82.2855 17.121C82.1235 16.839 81.9015 16.617 81.6195 16.455C81.3435 16.287 81.0405 16.203 80.7105 16.203C80.3805 16.203 80.0775 16.287 79.8015 16.455C79.5255 16.617 79.3035 16.839 79.1355 17.121C78.9675 17.397 78.8835 17.7 78.8835 18.03C78.8835 18.36 78.9675 18.663 79.1355 18.939C79.3035 19.215 79.5255 19.437 79.8015 19.605C80.0775 19.773 80.3805 19.857 80.7105 19.857ZM73.1325 14.25C72.5385 14.25 71.9955 14.106 71.5035 13.818C71.0115 13.524 70.6185 13.134 70.3245 12.648C70.0365 12.156 69.8925 11.61 69.8925 11.01C69.8925 10.422 70.0425 9.882 70.3425 9.39C70.6425 8.898 71.0385 8.505 71.5305 8.211C72.0225 7.917 72.5565 7.77 73.1325 7.77C73.7265 7.77 74.2665 7.917 74.7525 8.211C75.2445 8.499 75.6375 8.889 75.9315 9.381C76.2255 9.867 76.3725 10.41 76.3725 11.01C76.3725 11.61 76.2255 12.156 75.9315 12.648C75.6375 13.134 75.2445 13.524 74.7525 13.818C74.2665 14.106 73.7265 14.25 73.1325 14.25ZM73.1325 12.837C73.4625 12.837 73.7655 12.753 74.0415 12.585C74.3235 12.417 74.5455 12.195 74.7075 11.919C74.8755 11.643 74.9595 11.34 74.9595 11.01C74.9595 10.68 74.8755 10.377 74.7075 10.101C74.5455 9.819 74.3235 9.597 74.0415 9.435C73.7655 9.267 73.4625 9.183 73.1325 9.183C72.8025 9.183 72.4995 9.267 72.2235 9.435C71.9475 9.597 71.7255 9.819 71.5575 10.101C71.3895 10.377 71.3055 10.68 71.3055 11.01C71.3055 11.34 71.3895 11.643 71.5575 11.919C71.7255 12.195 71.9475 12.417 72.2235 12.585C72.4995 12.753 72.8025 12.837 73.1325 12.837Z" fill="#101828"/>
<path d="M48.98 45V34.92H49.729L53.859 43.838L57.947 34.92H58.724V44.986H57.933V36.775L54.181 45H53.523L49.764 36.775V45H48.98ZM63.7841 45.21C63.0328 45.21 62.3958 45.0397 61.8731 44.699C61.3505 44.3583 60.9515 43.887 60.6761 43.285C60.4008 42.683 60.2631 41.99 60.2631 41.206C60.2631 40.4173 60.4031 39.7243 60.6831 39.127C60.9631 38.525 61.3645 38.0583 61.8871 37.727C62.4145 37.3957 63.0468 37.23 63.7841 37.23C64.5355 37.23 65.1725 37.4003 65.6951 37.741C66.2225 38.077 66.6215 38.5437 66.8921 39.141C67.1675 39.7383 67.3051 40.4267 67.3051 41.206C67.3051 42.004 67.1675 42.704 66.8921 43.306C66.6168 43.9033 66.2155 44.37 65.6881 44.706C65.1608 45.042 64.5261 45.21 63.7841 45.21ZM63.7841 44.426C64.6755 44.426 65.3405 44.1273 65.7791 43.53C66.2225 42.9327 66.4441 42.158 66.4441 41.206C66.4441 40.2353 66.2225 39.4607 65.7791 38.882C65.3358 38.3033 64.6708 38.014 63.7841 38.014C63.1821 38.014 62.6851 38.1517 62.2931 38.427C61.9011 38.6977 61.6071 39.0733 61.4111 39.554C61.2198 40.03 61.1241 40.5807 61.1241 41.206C61.1241 42.1767 61.3481 42.956 61.7961 43.544C62.2488 44.132 62.9115 44.426 63.7841 44.426ZM72.1562 45.21C71.4749 45.21 70.8986 45.0327 70.4272 44.678C69.9559 44.3233 69.5966 43.845 69.3492 43.243C69.1019 42.641 68.9782 41.962 68.9782 41.206C68.9782 40.4453 69.1019 39.7663 69.3492 39.169C69.5966 38.567 69.9629 38.0933 70.4482 37.748C70.9336 37.4027 71.5286 37.23 72.2332 37.23C72.9192 37.23 73.5049 37.405 73.9902 37.755C74.4756 38.105 74.8442 38.581 75.0962 39.183C75.3529 39.785 75.4812 40.4593 75.4812 41.206C75.4812 41.962 75.3506 42.6433 75.0892 43.25C74.8326 43.852 74.4569 44.3303 73.9622 44.685C73.4722 45.035 72.8702 45.21 72.1562 45.21ZM68.8452 45V34.92H69.6502V39.176H69.5802V45H68.8452ZM72.1072 44.44C72.6626 44.44 73.1246 44.2977 73.4932 44.013C73.8666 43.7283 74.1466 43.3433 74.3332 42.858C74.5246 42.368 74.6202 41.8173 74.6202 41.206C74.6202 40.5993 74.5269 40.0557 74.3402 39.575C74.1582 39.0897 73.8806 38.707 73.5072 38.427C73.1386 38.1423 72.6672 38 72.0932 38C71.5379 38 71.0736 38.1377 70.7002 38.413C70.3269 38.6837 70.0469 39.0617 69.8602 39.547C69.6736 40.0323 69.5802 40.5853 69.5802 41.206C69.5802 41.822 69.6712 42.375 69.8532 42.865C70.0399 43.3503 70.3199 43.7353 70.6932 44.02C71.0712 44.3 71.5426 44.44 72.1072 44.44ZM77.161 35.914V34.885H77.966V35.914H77.161ZM77.161 45V37.44H77.966V45H77.161ZM80.2098 45V34.71H81.0148V45H80.2098ZM86.2337 45.21C85.5103 45.21 84.885 45.049 84.3577 44.727C83.8303 44.4003 83.422 43.9407 83.1327 43.348C82.8433 42.7507 82.6987 42.046 82.6987 41.234C82.6987 40.408 82.841 39.6963 83.1257 39.099C83.415 38.497 83.821 38.035 84.3437 37.713C84.871 37.391 85.4963 37.23 86.2197 37.23C86.9523 37.23 87.5777 37.398 88.0957 37.734C88.6183 38.0653 89.015 38.546 89.2857 39.176C89.561 39.806 89.6917 40.5643 89.6777 41.451H88.8377V41.171C88.8143 40.135 88.581 39.3463 88.1377 38.805C87.6943 38.2637 87.0597 37.993 86.2337 37.993C85.3797 37.993 84.7193 38.2753 84.2527 38.84C83.7907 39.4 83.5597 40.1933 83.5597 41.22C83.5597 42.2373 83.7907 43.026 84.2527 43.586C84.7193 44.146 85.375 44.426 86.2197 44.426C86.803 44.426 87.3117 44.2907 87.7457 44.02C88.1843 43.7447 88.532 43.3527 88.7887 42.844L89.5167 43.166C89.2133 43.8193 88.7747 44.3233 88.2007 44.678C87.6267 45.0327 86.971 45.21 86.2337 45.21ZM83.2517 41.451V40.723H89.2227V41.451H83.2517Z" fill="#555555"/>
</svg>
