<svg width="20" height="20" viewBox="0 0 20 20" fill="none" xmlns="http://www.w3.org/2000/svg">
<path opacity="0.4" d="M17.5 5.83329V14.1666C17.5 16.6666 16.25 18.3333 13.3333 18.3333H6.66667C3.75 18.3333 2.5 16.6666 2.5 14.1666V5.83329C2.5 3.33329 3.75 1.66663 6.66667 1.66663H13.3333C16.25 1.66663 17.5 3.33329 17.5 5.83329Z" fill="#3D4350"/>
<path d="M15.4166 7.70833H13.75C12.4833 7.70833 11.4583 6.68333 11.4583 5.41667V3.75C11.4583 3.40833 11.7416 3.125 12.0833 3.125C12.425 3.125 12.7083 3.40833 12.7083 3.75V5.41667C12.7083 5.99167 13.175 6.45833 13.75 6.45833H15.4166C15.7583 6.45833 16.0416 6.74167 16.0416 7.08333C16.0416 7.425 15.7583 7.70833 15.4166 7.70833Z" fill="#3D4350"/>
<path d="M10 11.4584H6.66669C6.32502 11.4584 6.04169 11.175 6.04169 10.8334C6.04169 10.4917 6.32502 10.2084 6.66669 10.2084H10C10.3417 10.2084 10.625 10.4917 10.625 10.8334C10.625 11.175 10.3417 11.4584 10 11.4584Z" fill="#3D4350"/>
<path d="M13.3334 14.7916H6.66669C6.32502 14.7916 6.04169 14.5083 6.04169 14.1666C6.04169 13.825 6.32502 13.5416 6.66669 13.5416H13.3334C13.675 13.5416 13.9584 13.825 13.9584 14.1666C13.9584 14.5083 13.675 14.7916 13.3334 14.7916Z" fill="#3D4350"/>
</svg>
