<svg width="20" height="20" viewBox="0 0 20 20" fill="none" xmlns="http://www.w3.org/2000/svg">
<path opacity="0.4" d="M7.08329 15.8083H6.66663C3.33329 15.8083 1.66663 14.975 1.66663 10.8083V6.64163C1.66663 3.3083 3.33329 1.64163 6.66663 1.64163H13.3333C16.6666 1.64163 18.3333 3.3083 18.3333 6.64163V10.8083C18.3333 14.1416 16.6666 15.8083 13.3333 15.8083H12.9166C12.6583 15.8083 12.4083 15.9333 12.25 16.1417L11 17.8083C10.45 18.5417 9.54995 18.5417 8.99995 17.8083L7.74995 16.1417C7.61662 15.9583 7.31663 15.8083 7.08329 15.8083Z" fill="#3D4350"/>
<path d="M6.66666 11.2083C6.50832 11.2083 6.34999 11.15 6.22499 11.025L4.55833 9.35829C4.31666 9.11663 4.31666 8.71663 4.55833 8.47496L6.22499 6.80829C6.46666 6.56663 6.86666 6.56663 7.10832 6.80829C7.34999 7.04996 7.34999 7.44996 7.10832 7.69163L5.88332 8.91665L7.10832 10.1416C7.34999 10.3833 7.34999 10.7833 7.10832 11.025C6.98332 11.15 6.82499 11.2083 6.66666 11.2083Z" fill="#3D4350"/>
<path d="M13.3334 11.2083C13.175 11.2083 13.0167 11.15 12.8917 11.025C12.65 10.7833 12.65 10.3833 12.8917 10.1416L14.1167 8.91665L12.8917 7.69163C12.65 7.44996 12.65 7.04996 12.8917 6.80829C13.1334 6.56663 13.5334 6.56663 13.775 6.80829L15.4417 8.47496C15.6834 8.71663 15.6834 9.11663 15.4417 9.35829L13.775 11.025C13.65 11.15 13.4917 11.2083 13.3334 11.2083Z" fill="#3D4350"/>
<mask id="path-4-inside-1_1668_2016" fill="white">
<path d="M9.16664 11.4834C9.08331 11.4834 8.99998 11.4666 8.91665 11.4333C8.59998 11.3 8.44997 10.9333 8.59164 10.6083L10.2583 6.71667C10.3916 6.4 10.7583 6.24999 11.0833 6.39166C11.4 6.52499 11.55 6.89165 11.4083 7.21665L9.74164 11.1084C9.64164 11.3417 9.40831 11.4834 9.16664 11.4834Z"/>
</mask>
<path d="M9.16664 11.4834C9.08331 11.4834 8.99998 11.4666 8.91665 11.4333C8.59998 11.3 8.44997 10.9333 8.59164 10.6083L10.2583 6.71667C10.3916 6.4 10.7583 6.24999 11.0833 6.39166C11.4 6.52499 11.55 6.89165 11.4083 7.21665L9.74164 11.1084C9.64164 11.3417 9.40831 11.4834 9.16664 11.4834Z" fill="#3D4350"/>
<path d="M8.91665 11.4333L8.33456 12.8158L8.34702 12.821L8.35956 12.826L8.91665 11.4333ZM8.59164 10.6083L9.96671 11.2077L9.97051 11.1988L8.59164 10.6083ZM10.2583 6.71667L11.6372 7.3072L11.6408 7.29875L10.2583 6.71667ZM11.0833 6.39166L10.4839 7.7667L10.4925 7.77046L10.5012 7.77411L11.0833 6.39166ZM11.4083 7.21665L10.0332 6.61726L10.0294 6.62613L11.4083 7.21665ZM9.74164 11.1084L11.1204 11.6992L11.1205 11.6989L9.74164 11.1084ZM9.16664 9.98336C9.28899 9.98336 9.39422 10.0088 9.47374 10.0406L8.35956 12.826C8.60574 12.9245 8.87763 12.9834 9.16664 12.9834V9.98336ZM9.49874 10.0509C9.95572 10.2433 10.1575 10.7699 9.96668 11.2077L7.21659 10.0089C6.74242 11.0968 7.24425 12.3567 8.33456 12.8158L9.49874 10.0509ZM9.97051 11.1988L11.6372 7.30719L8.87944 6.12614L7.21277 10.0178L9.97051 11.1988ZM11.6408 7.29875C11.4483 7.75574 10.9217 7.95754 10.4839 7.7667L11.6827 5.01661C10.5949 4.54244 9.33493 5.04427 8.87585 6.13458L11.6408 7.29875ZM10.5012 7.77411C10.0442 7.5817 9.84242 7.05508 10.0333 6.61727L12.7834 7.81603C13.2575 6.72821 12.7557 5.46828 11.6654 5.0092L10.5012 7.77411ZM10.0294 6.62613L8.36277 10.5178L11.1205 11.6989L12.7872 7.80717L10.0294 6.62613ZM8.36292 10.5175C8.51256 10.1683 8.84267 9.98336 9.16664 9.98336V12.9834C9.97394 12.9834 10.7707 12.515 11.1204 11.6992L8.36292 10.5175Z" fill="#3D4350" mask="url(#path-4-inside-1_1668_2016)"/>
</svg>
